<svg width="240" height="56" viewBox="0 0 240 56" fill="none" xmlns="http://www.w3.org/2000/svg">
<path d="M77.5781 19.4531C77.4531 19.4219 77.3359 19.3828 77.2266 19.3359C77.1172 19.2891 77.0156 19.2344 76.9219 19.1719C76.8281 19.0469 76.7578 18.9141 76.7109 18.7734C76.6641 18.6328 76.6406 18.4844 76.6406 18.3281C76.7969 15.8281 76.9219 13.3125 77.0156 10.7812C77.1094 8.25 77.4531 5.76562 78.0469 3.32812C78.1719 3.23438 78.3047 3.16406 78.4453 3.11719C78.5859 3.07031 78.7344 3.0625 78.8906 3.09375L79.3594 3.32812C79.4531 3.45312 79.5234 3.58594 79.5703 3.72656C79.6172 3.86719 79.625 4.03125 79.5938 4.21875C79.1875 6.375 78.9375 8.5625 78.8438 10.7812C78.75 13 78.6406 15.2188 78.5156 17.4375H78.7031C79.7031 17.3438 80.7109 17.2812 81.7266 17.25C82.7422 17.2188 83.7656 17.1875 84.7969 17.1562C84.9844 17.25 85.1797 17.3203 85.3828 17.3672C85.5859 17.4141 85.7656 17.5 85.9219 17.625C86.0156 17.75 86.0859 17.8828 86.1328 18.0234C86.1797 18.1641 86.1875 18.3125 86.1562 18.4688L85.9219 18.9375C85.8281 19.0312 85.7188 19.0938 85.5938 19.125C85.4688 19.1562 85.3438 19.1875 85.2188 19.2188C84.9688 19.1562 84.7109 19.0938 84.4453 19.0312C84.1797 18.9688 83.9062 18.9531 83.625 18.9844C82.625 19.0781 81.6094 19.125 80.5781 19.125C79.5469 19.125 78.5469 19.2344 77.5781 19.4531ZM94.6875 20.8594L93.6094 20.7656H91.7344C91.6094 20.7344 91.4922 20.6953 91.3828 20.6484C91.2734 20.6016 91.1719 20.5469 91.0781 20.4844C90.9844 20.3594 90.9141 20.2266 90.8672 20.0859C90.8203 19.9453 90.8125 19.7969 90.8438 19.6406L91.0781 19.1719C91.2344 19.0469 91.4219 18.9766 91.6406 18.9609C91.8594 18.9453 92.0781 18.9375 92.2969 18.9375C92.3906 18 92.4766 17.0547 92.5547 16.1016C92.6328 15.1484 92.7031 14.1875 92.7656 13.2188V3.70312L92.7188 3C92.375 3.03125 92.0391 3.02344 91.7109 2.97656C91.3828 2.92969 91.0781 2.8125 90.7969 2.625C90.7031 2.5 90.6328 2.36719 90.5859 2.22656C90.5391 2.08594 90.5312 1.9375 90.5625 1.78125L90.7969 1.3125C90.9219 1.21875 91.0547 1.14844 91.1953 1.10156C91.3359 1.05469 91.5 1.04687 91.6875 1.07812C91.9688 1.17188 92.2812 1.21094 92.625 1.19531C92.9688 1.17969 93.2969 1.1875 93.6094 1.21875H96L96.4688 1.45312C96.5625 1.57813 96.6406 1.71094 96.7031 1.85156C96.7656 1.99219 96.7812 2.15625 96.75 2.34375L96.5156 2.8125C96.2344 3 95.9219 3.08594 95.5781 3.07031C95.2344 3.05469 94.8906 3.04688 94.5469 3.04688V3.65625L94.5938 3.70312V13.2188C94.5312 14.1875 94.4609 15.1484 94.3828 16.1016C94.3047 17.0547 94.2188 18.0156 94.125 18.9844C94.5 19.0469 94.8828 19.0625 95.2734 19.0312C95.6641 19 96.0156 19.0781 96.3281 19.2656C96.4219 19.3906 96.4922 19.5234 96.5391 19.6641C96.5859 19.8047 96.5938 19.9688 96.5625 20.1562L96.3281 20.625C96.1094 20.8125 95.8516 20.8984 95.5547 20.8828C95.2578 20.8672 94.9688 20.8594 94.6875 20.8594ZM108.797 18.4688L108.375 18.3281L107.953 18.375L107.484 18.1406C106.797 16.4531 106.102 14.7578 105.398 13.0547C104.695 11.3516 104.016 9.64062 103.359 7.92188C103.203 9.60938 103.031 11.2891 102.844 12.9609C102.656 14.6328 102.312 16.2812 101.812 17.9062C101.688 18 101.555 18.0703 101.414 18.1172C101.273 18.1641 101.125 18.1719 100.969 18.1406L100.5 17.9062C100.406 17.8125 100.344 17.6953 100.312 17.5547C100.281 17.4141 100.25 17.2812 100.219 17.1562C100.75 15.1562 101.078 13.1406 101.203 11.1094C101.328 9.07812 101.578 7.0625 101.953 5.0625L102.328 4.64062C102.484 4.51562 102.672 4.44531 102.891 4.42969C103.109 4.41406 103.328 4.40625 103.547 4.40625L104.016 4.64062C104.703 6.35938 105.398 8.09375 106.102 9.84375C106.805 11.5938 107.516 13.3281 108.234 15.0469L108.469 13.0781V10.5938L108.984 5.57812V3.1875C108.922 3.03125 108.867 2.88281 108.82 2.74219C108.773 2.60156 108.766 2.4375 108.797 2.25L109.031 1.78125C109.156 1.6875 109.289 1.61719 109.43 1.57031C109.57 1.52344 109.719 1.51562 109.875 1.54688L110.344 1.78125C110.5 1.96875 110.602 2.17969 110.648 2.41406C110.695 2.64844 110.75 2.89062 110.812 3.14062V5.57812L110.297 10.5938V13.0781C110.203 13.9531 110.109 14.8203 110.016 15.6797C109.922 16.5391 109.75 17.375 109.5 18.1875C109.406 18.2812 109.297 18.3438 109.172 18.375C109.047 18.4062 108.922 18.4375 108.797 18.4688ZM120.469 19.6875L117.328 19.5H115.172L114.75 19.4062C114.656 19.5 114.547 19.5547 114.422 19.5703C114.297 19.5859 114.156 19.5938 114 19.5938L113.531 19.3594C113.438 19.2031 113.367 19.0391 113.32 18.8672C113.273 18.6953 113.25 18.5156 113.25 18.3281L113.578 14.3438V11.9062C113.359 10.2812 113.227 8.64844 113.18 7.00781C113.133 5.36719 113.016 3.73438 112.828 2.10938L113.062 1.64062C113.188 1.54688 113.32 1.47656 113.461 1.42969C113.602 1.38281 113.75 1.375 113.906 1.40625C115 1.65625 116.094 1.875 117.188 2.0625C118.281 2.25 119.375 2.4375 120.469 2.625C120.562 2.75 120.633 2.88281 120.68 3.02344C120.727 3.16406 120.734 3.3125 120.703 3.46875L120.469 3.9375C120.281 4.0625 120.086 4.14062 119.883 4.17188C119.68 4.20312 119.453 4.21875 119.203 4.21875C118.484 4.125 117.758 4.00781 117.023 3.86719C116.289 3.72656 115.562 3.59375 114.844 3.46875V4.21875L115.078 8.4375C116.109 8.6875 117.133 8.94531 118.148 9.21094C119.164 9.47656 120.172 9.73438 121.172 9.98438C121.266 10.1094 121.336 10.2422 121.383 10.3828C121.43 10.5234 121.438 10.6719 121.406 10.8281L121.172 11.2969C121.047 11.3906 120.914 11.4609 120.773 11.5078C120.633 11.5547 120.469 11.5625 120.281 11.5312C119.438 11.4062 118.602 11.2266 117.773 10.9922C116.945 10.7578 116.109 10.5312 115.266 10.3125L115.219 10.4062L115.406 11.9062V14.3438L115.172 17.6719H117.328C118.047 17.7344 118.781 17.7734 119.531 17.7891C120.281 17.8047 121 17.9062 121.688 18.0938C121.781 18.2188 121.852 18.3516 121.898 18.4922C121.945 18.6328 121.953 18.7969 121.922 18.9844L121.688 19.4531C121.531 19.5781 121.344 19.6484 121.125 19.6641C120.906 19.6797 120.688 19.6875 120.469 19.6875ZM127.219 22.7344L126.75 22.5C126.688 22.4062 126.633 22.3047 126.586 22.1953C126.539 22.0859 126.5 21.9688 126.469 21.8438C126.469 21.1875 126.516 20.5469 126.609 19.9219C126.703 19.2969 126.766 18.6719 126.797 18.0469V15.1406L126.844 15.0938V10.3125L126.891 10.2656V5.34375L126.797 3.1875H126.703C126.609 3.0625 126.539 2.92969 126.492 2.78906C126.445 2.64844 126.438 2.5 126.469 2.34375L126.703 1.875C126.891 1.71875 127.125 1.64062 127.406 1.64062C127.688 1.64062 127.953 1.64062 128.203 1.64062C129.016 1.79687 129.82 1.9375 130.617 2.0625C131.414 2.1875 132.188 2.4375 132.938 2.8125C133.031 2.9375 133.102 3.07031 133.148 3.21094C133.195 3.35156 133.203 3.5 133.172 3.65625L132.938 4.125C132.469 4.625 132.055 5.17969 131.695 5.78906C131.336 6.39844 130.969 6.98438 130.594 7.54688L131.625 8.10938C131.844 8.35938 132.078 8.60938 132.328 8.85938C132.578 9.10938 132.672 9.42188 132.609 9.79688C132.547 10.5469 132.305 11.2422 131.883 11.8828C131.461 12.5234 130.953 13.0938 130.359 13.5938C130.078 13.8125 129.812 14.0469 129.562 14.2969C129.312 14.5469 129.016 14.7031 128.672 14.7656L128.625 15.1406V18.0469C128.531 18.7969 128.461 19.5469 128.414 20.2969C128.367 21.0469 128.25 21.7812 128.062 22.5C127.938 22.5938 127.805 22.6641 127.664 22.7109C127.523 22.7578 127.375 22.7656 127.219 22.7344ZM133.594 21L133.125 20.7656C132.969 20.5469 132.875 20.2969 132.844 20.0156C132.812 19.7344 132.797 19.4375 132.797 19.125C133.234 16.5938 133.586 14.0469 133.852 11.4844C134.117 8.92188 134.453 6.375 134.859 3.84375C134.734 3.78125 134.602 3.73438 134.461 3.70312C134.32 3.67188 134.203 3.60938 134.109 3.51562C134.016 3.39062 133.945 3.25781 133.898 3.11719C133.852 2.97656 133.844 2.82812 133.875 2.67188L134.109 2.20312C134.234 2.10938 134.367 2.03906 134.508 1.99219C134.648 1.94531 134.797 1.9375 134.953 1.96875C136.141 2.1875 137.344 2.34375 138.562 2.4375C139.781 2.53125 140.969 2.70312 142.125 2.95312C142.219 3.07812 142.297 3.21094 142.359 3.35156C142.422 3.49219 142.469 3.64062 142.5 3.79688V7.3125L142.547 7.35938V9.79688L142.312 10.2656L141.891 10.6406C141.797 10.7344 141.688 10.7969 141.562 10.8281C141.438 10.8594 141.312 10.8906 141.188 10.9219H139.031L135.797 10.7344C135.641 12.0781 135.477 13.4141 135.305 14.7422C135.133 16.0703 134.938 17.3906 134.719 18.7031L134.766 18.75C135.266 18.625 135.773 18.4766 136.289 18.3047C136.805 18.1328 137.328 18.0156 137.859 17.9531L138.328 18.1875C138.422 18.3125 138.492 18.4453 138.539 18.5859C138.586 18.7266 138.594 18.875 138.562 19.0312L138.328 19.5C137.734 19.7812 137.109 20.0078 136.453 20.1797C135.797 20.3516 135.141 20.5156 134.484 20.6719L134.438 20.7656C134.312 20.8594 134.18 20.9297 134.039 20.9766C133.898 21.0234 133.75 21.0312 133.594 21ZM141.844 20.9531L141.375 20.7188C140.688 19.625 140.07 18.4844 139.523 17.2969C138.977 16.1094 138.547 14.8906 138.234 13.6406L138.469 13.1719C138.594 13.0781 138.727 13.0078 138.867 12.9609C139.008 12.9141 139.156 12.9062 139.312 12.9375L139.781 13.1719C139.938 13.4219 140.062 13.6875 140.156 13.9688C140.25 14.25 140.359 14.5156 140.484 14.7656L142.969 11.9531C143.125 11.8281 143.297 11.7266 143.484 11.6484C143.672 11.5703 143.875 11.5469 144.094 11.5781L144.562 11.8125C144.656 11.9375 144.727 12.0703 144.773 12.2109C144.82 12.3516 144.828 12.5 144.797 12.6562L144.562 13.125L144.094 13.4062L141.281 16.6875C141.531 17.2812 141.828 17.8672 142.172 18.4453C142.516 19.0234 142.766 19.625 142.922 20.25L142.688 20.7188C142.562 20.8125 142.43 20.8828 142.289 20.9297C142.148 20.9766 142 20.9844 141.844 20.9531ZM128.766 12.5625C129.109 12.25 129.453 11.9297 129.797 11.6016C130.141 11.2734 130.391 10.9062 130.547 10.5L130.734 9.84375C130.453 9.5625 130.141 9.33594 129.797 9.16406C129.453 8.99219 129.125 8.76562 128.812 8.48438L128.766 8.39062L128.672 10.3125V12.5625L128.719 12.6094L128.766 12.5625ZM140.719 9.09375V7.73438C139.969 7.67188 139.211 7.57812 138.445 7.45312C137.68 7.32812 136.922 7.21875 136.172 7.125L135.984 8.95312L140.719 9.09375ZM128.812 6.84375V6.79688C129.188 6.35938 129.523 5.89844 129.82 5.41406C130.117 4.92969 130.422 4.4375 130.734 3.9375L128.625 3.5625V3.75L128.766 6.89062L128.812 6.84375ZM140.672 5.90625V4.5C140.016 4.375 139.344 4.28906 138.656 4.24219C137.969 4.19531 137.281 4.14062 136.594 4.07812L136.453 5.25C137.141 5.40625 137.836 5.53906 138.539 5.64844C139.242 5.75781 139.953 5.84375 140.672 5.90625ZM164.438 19.7344C162.594 19.5156 160.773 19.1484 158.977 18.6328C157.18 18.1172 155.594 17.2031 154.219 15.8906L154.078 17.7656L154.219 18.5625L153.984 19.0312C153.891 19.125 153.773 19.1875 153.633 19.2188C153.492 19.25 153.359 19.2812 153.234 19.3125C153.109 19.2812 152.992 19.2422 152.883 19.1953C152.773 19.1484 152.672 19.0938 152.578 19.0312C152.453 18.8438 152.375 18.6406 152.344 18.4219C152.312 18.2031 152.281 17.9844 152.25 17.7656C152.281 16.7344 152.352 15.7031 152.461 14.6719C152.57 13.6406 152.844 12.6719 153.281 11.7656C153.406 11.6719 153.539 11.6016 153.68 11.5547C153.82 11.5078 153.969 11.5 154.125 11.5312L154.594 11.7656C154.688 11.8906 154.758 12.0234 154.805 12.1641C154.852 12.3047 154.859 12.4531 154.828 12.6094C154.734 12.7969 154.648 12.9922 154.57 13.1953C154.492 13.3984 154.453 13.6094 154.453 13.8281C154.953 14.1094 155.422 14.4688 155.859 14.9062C156.297 15.3438 156.781 15.7031 157.312 15.9844L157.359 15.8906C157.266 15.5781 157.219 15.2344 157.219 14.8594C157.219 14.4844 157.219 14.125 157.219 13.7812L157.547 9.84375L156.984 9.79688H154.781C154.656 9.76562 154.539 9.72656 154.43 9.67969C154.32 9.63281 154.219 9.57812 154.125 9.51562C154.031 9.39062 153.961 9.25781 153.914 9.11719C153.867 8.97656 153.859 8.82812 153.891 8.67188L154.125 8.20312L154.594 7.96875H156.984L157.031 8.01562H160.172L160.219 8.0625H162.141C162.266 8.09375 162.391 8.125 162.516 8.15625C162.641 8.1875 162.75 8.25 162.844 8.34375C162.938 8.46875 163.008 8.60156 163.055 8.74219C163.102 8.88281 163.109 9.03125 163.078 9.1875L162.844 9.65625C162.719 9.75 162.586 9.8125 162.445 9.84375C162.305 9.875 162.156 9.90625 162 9.9375L159.375 9.84375L159.188 12.1875L160.312 12.2812H163.172L163.641 12.5156C163.734 12.6406 163.805 12.7734 163.852 12.9141C163.898 13.0547 163.906 13.2031 163.875 13.3594L163.641 13.8281C163.547 13.9219 163.438 13.9844 163.312 14.0156C163.188 14.0469 163.062 14.0781 162.938 14.1094H160.312L159.047 14.0625V15.2344C159.109 15.3281 159.148 15.4453 159.164 15.5859C159.18 15.7266 159.188 15.8594 159.188 15.9844L158.953 16.4531L158.766 16.5938C159.828 17 160.914 17.3047 162.023 17.5078C163.133 17.7109 164.234 17.9219 165.328 18.1406C165.422 18.2656 165.492 18.3984 165.539 18.5391C165.586 18.6797 165.594 18.8281 165.562 18.9844L165.328 19.4531C165.203 19.5469 165.062 19.6172 164.906 19.6641C164.75 19.7109 164.594 19.7344 164.438 19.7344ZM151.734 10.7812L151.266 10.5469C151.016 9.98438 150.867 9.39062 150.82 8.76562C150.773 8.14062 150.703 7.53125 150.609 6.9375V4.73438C150.641 4.54688 150.688 4.35938 150.75 4.17188C150.812 3.98438 150.906 3.8125 151.031 3.65625C151.156 3.5625 151.289 3.49219 151.43 3.44531C151.57 3.39844 151.719 3.39062 151.875 3.42188L152.344 3.65625C152.406 3.75 152.461 3.85938 152.508 3.98438C152.555 4.10938 152.578 4.23438 152.578 4.35938H154.172L156.891 4.17188C156.922 3.51562 156.938 2.85156 156.938 2.17969C156.938 1.50781 157.047 0.875 157.266 0.28125C157.391 0.1875 157.523 0.117188 157.664 0.0703125C157.805 0.0234375 157.953 0.015625 158.109 0.046875L158.578 0.28125C158.734 0.46875 158.812 0.695312 158.812 0.960938C158.812 1.22656 158.812 1.48438 158.812 1.73438L158.719 4.17188H158.859L158.906 4.125H165.047C165.516 4.1875 165.992 4.24219 166.477 4.28906C166.961 4.33594 167.406 4.46875 167.812 4.6875C167.906 4.8125 167.977 4.94531 168.023 5.08594C168.07 5.22656 168.078 5.375 168.047 5.53125L167.812 6L167.672 6.09375C167.484 6.71875 167.336 7.34375 167.227 7.96875C167.117 8.59375 166.938 9.20312 166.688 9.79688C166.562 9.89062 166.43 9.96094 166.289 10.0078C166.148 10.0547 166 10.0625 165.844 10.0312L165.375 9.79688C165.281 9.67188 165.211 9.53906 165.164 9.39844C165.117 9.25781 165.109 9.09375 165.141 8.90625C165.266 8.4375 165.375 7.96094 165.469 7.47656C165.562 6.99219 165.672 6.51562 165.797 6.04688L165.047 5.95312H158.906L158.859 6H156.562C155.875 6.0625 155.188 6.11719 154.5 6.16406C153.812 6.21094 153.125 6.21875 152.438 6.1875V6.9375C152.5 7.46875 152.562 7.99219 152.625 8.50781C152.688 9.02344 152.75 9.54688 152.812 10.0781L152.578 10.5469C152.453 10.6406 152.32 10.7109 152.18 10.7578C152.039 10.8047 151.891 10.8125 151.734 10.7812ZM93.7266 53.4062L93.2344 53.1719C93.1406 53.0312 93.0625 52.8906 93 52.75C92.9531 52.5938 92.9453 52.4219 92.9766 52.2344C93.8672 50.5156 94.5703 48.7188 95.0859 46.8438C95.6016 44.9531 95.8047 43.0391 95.6953 41.1016C93.9922 40.8047 92.2578 40.6016 90.4922 40.4922C88.7266 40.3672 87 40.0703 85.3125 39.6016C85.2188 39.4766 85.1484 39.3438 85.1016 39.2031C85.0547 39.0469 85.0469 38.8828 85.0781 38.7109L85.3125 38.2188C85.4531 38.125 85.5938 38.0547 85.7344 38.0078C85.8906 37.9453 86.0469 37.9375 86.2031 37.9844C88.0469 38.2344 89.9062 38.4609 91.7812 38.6641C93.6719 38.8672 95.5234 39.1797 97.3359 39.6016L97.6406 40.1406V42.625C97.5625 44.4688 97.2578 46.2812 96.7266 48.0625C96.2109 49.8438 95.5078 51.5469 94.6172 53.1719C94.4922 53.2656 94.3516 53.3359 94.1953 53.3828C94.0547 53.4297 93.8984 53.4375 93.7266 53.4062ZM100.055 40.7969L98.6719 39.9062C98.375 39.5156 98.1562 39.1016 98.0156 38.6641C97.8906 38.2109 97.8125 37.7344 97.7812 37.2344C97.875 36.9062 97.9297 36.5703 97.9453 36.2266C97.9609 35.8672 98.0703 35.5391 98.2734 35.2422C98.8672 35.0859 99.4375 34.8359 99.9844 34.4922C100.531 34.1328 101.164 34.0078 101.883 34.1172C102.148 34.2109 102.406 34.3047 102.656 34.3984C102.906 34.4766 103.148 34.5938 103.383 34.75C103.836 35.1875 104.172 35.6641 104.391 36.1797C104.609 36.6797 104.695 37.2422 104.648 37.8672C104.586 38.1641 104.477 38.4375 104.32 38.6875C104.18 38.9375 104.031 39.1953 103.875 39.4609C103.375 39.9609 102.797 40.3359 102.141 40.5859C101.484 40.8203 100.789 40.8906 100.055 40.7969ZM102.094 38.4297C102.25 38.3203 102.367 38.1953 102.445 38.0547C102.539 37.8984 102.633 37.7578 102.727 37.6328V37.2344C102.695 37.0312 102.617 36.8594 102.492 36.7188C102.383 36.5625 102.266 36.4219 102.141 36.2969C101.969 36.2344 101.812 36.1719 101.672 36.1094C101.547 36.0312 101.391 36.0078 101.203 36.0391C100.938 36.1484 100.695 36.2969 100.477 36.4844C100.258 36.6562 100.039 36.8359 99.8203 37.0234L99.7031 37.2344C99.7344 37.5 99.7812 37.75 99.8438 37.9844C99.9219 38.2031 100.023 38.4141 100.148 38.6172C100.289 38.7891 100.445 38.875 100.617 38.875C100.805 38.875 101 38.875 101.203 38.875L102.094 38.4297ZM115.172 54.1562C114.984 54.1094 114.82 54.0391 114.68 53.9453C114.555 53.8672 114.422 53.7812 114.281 53.6875C113.547 51.9531 113.039 50.125 112.758 48.2031C112.477 46.2812 112.234 44.375 112.031 42.4844V39.5078C112.062 39.1328 112.078 38.7344 112.078 38.3125C112.078 37.8906 112.18 37.5234 112.383 37.2109C112.523 37.1016 112.672 37.0234 112.828 36.9766C112.984 36.9141 113.148 36.9062 113.32 36.9531L113.859 37.2109C114.062 37.5234 114.156 37.8828 114.141 38.2891C114.125 38.6797 114.117 39.0703 114.117 39.4609L114.07 39.5078V42.4844C114.211 44.0938 114.406 45.7031 114.656 47.3125C114.922 48.9219 115.281 50.4922 115.734 52.0234C116.953 51.4922 118.141 50.9062 119.297 50.2656C120.453 49.625 121.57 48.9219 122.648 48.1562L122.977 47.6172C123.102 47.5234 123.242 47.4531 123.398 47.4062C123.57 47.3438 123.742 47.3281 123.914 47.3594L124.43 47.6172C124.539 47.7578 124.617 47.9219 124.664 48.1094C124.727 48.2812 124.734 48.4688 124.688 48.6719L124.336 49.4453C122.898 50.4609 121.43 51.4062 119.93 52.2812C118.43 53.1562 116.844 53.7812 115.172 54.1562ZM141.586 54.3203C141.211 54.1016 140.836 53.8359 140.461 53.5234C140.086 53.2109 139.703 52.9453 139.312 52.7266C138.359 51.6328 137.734 50.3984 137.438 49.0234C137.156 47.6328 137.031 46.2266 137.062 44.8047L137.25 43.6562C136.672 43.6562 136.086 43.6484 135.492 43.6328C134.898 43.6172 134.344 43.4844 133.828 43.2344C133.734 43.0938 133.664 42.9531 133.617 42.8125C133.57 42.6719 133.562 42.5234 133.594 42.3672L133.828 41.875C133.953 41.7812 134.086 41.7109 134.227 41.6641C134.383 41.6172 134.555 41.6094 134.742 41.6406C134.867 41.7031 135.008 41.7344 135.164 41.7344C135.336 41.7344 135.5 41.75 135.656 41.7812H137.578C137.656 41.2969 137.758 40.8125 137.883 40.3281C138.008 39.8438 138.234 39.4141 138.562 39.0391C138.688 38.9453 138.82 38.875 138.961 38.8281C139.102 38.7656 139.258 38.75 139.43 38.7812L139.898 39.0391C139.992 39.1641 140.062 39.2969 140.109 39.4375C140.172 39.5781 140.18 39.75 140.133 39.9531C139.945 40.2344 139.797 40.5469 139.688 40.8906C139.578 41.2188 139.508 41.5625 139.477 41.9219C140.758 41.9844 142.031 42.0938 143.297 42.25C144.578 42.3906 145.859 42.5391 147.141 42.6953V42.5078L147.094 42.4609L147.141 42.4141V39.8594C147.172 39.5625 147.219 39.2734 147.281 38.9922C147.344 38.6953 147.477 38.4375 147.68 38.2188C147.805 38.125 147.938 38.0547 148.078 38.0078C148.219 37.9453 148.375 37.9375 148.547 37.9844L149.016 38.2188C149.109 38.3438 149.18 38.4844 149.227 38.6406C149.289 38.7812 149.297 38.9453 149.25 39.1328L149.016 39.8594V42.3203L149.109 42.9297L148.875 43.4219C148.75 43.5156 148.609 43.5859 148.453 43.6328C148.312 43.6797 148.164 43.6875 148.008 43.6562L147.727 43.5156C147.695 43.6406 147.656 43.7812 147.609 43.9375C147.578 44.0781 147.516 44.1953 147.422 44.2891C146.844 44.8672 146.336 45.4922 145.898 46.1641C145.477 46.8359 145.039 47.5078 144.586 48.1797C144.461 48.2734 144.32 48.3516 144.164 48.4141C144.023 48.4609 143.875 48.4688 143.719 48.4375L143.227 48.1797C143.133 48.0547 143.062 47.9219 143.016 47.7812C142.969 47.6406 142.961 47.4688 142.992 47.2656C143.273 46.7812 143.586 46.2969 143.93 45.8125C144.273 45.3125 144.602 44.8203 144.914 44.3359C143.945 44.1797 142.969 44.0625 141.984 43.9844C141.016 43.8906 140.047 43.8125 139.078 43.75C139.016 44.2344 138.977 44.7188 138.961 45.2031C138.945 45.6875 138.938 46.1875 138.938 46.7031C139.031 47.5312 139.195 48.3594 139.43 49.1875C139.68 50 140.078 50.7422 140.625 51.4141C140.984 51.6016 141.312 51.8203 141.609 52.0703C141.922 52.3047 142.219 52.5703 142.5 52.8672C142.609 52.9609 142.672 53.0703 142.688 53.1953C142.703 53.3203 142.711 53.4688 142.711 53.6406L142.453 54.0859C142.328 54.1797 142.195 54.25 142.055 54.2969C141.914 54.3594 141.758 54.3672 141.586 54.3203ZM151.383 43.7969L150.891 43.5625C150.734 43.3438 150.641 43.0859 150.609 42.7891C150.578 42.4766 150.547 42.1719 150.516 41.875C150.547 41.3281 150.586 40.7969 150.633 40.2812C150.68 39.7656 150.805 39.2656 151.008 38.7812C151.133 38.6875 151.266 38.6172 151.406 38.5703C151.547 38.5234 151.703 38.5156 151.875 38.5469L152.344 38.7812C152.469 38.9531 152.539 39.1328 152.555 39.3203C152.586 39.5078 152.602 39.7031 152.602 39.9062C152.492 40.2188 152.438 40.5469 152.438 40.8906C152.438 41.2188 152.422 41.5469 152.391 41.875L152.484 43.0703L152.25 43.5625C152.125 43.6562 151.984 43.7266 151.828 43.7734C151.688 43.8203 151.539 43.8281 151.383 43.7969ZM159.75 53.4531L159.258 53.2188C159.164 53.0781 159.086 52.9375 159.023 52.7969C158.977 52.6406 158.977 52.4844 159.023 52.3281L159.258 51.8359C161.852 50.8047 164.344 49.5938 166.734 48.2031C169.141 46.8125 171.516 45.3906 173.859 43.9375L174.117 43.5391C174.258 43.4453 174.406 43.375 174.562 43.3281C174.734 43.2656 174.914 43.25 175.102 43.2812L175.617 43.5391C175.711 43.6641 175.789 43.8047 175.852 43.9609C175.93 44.1016 175.945 44.2734 175.898 44.4766L175.664 44.9688L175.406 45.2266C172.891 46.7734 170.359 48.3047 167.812 49.8203C165.266 51.3203 162.578 52.5312 159.75 53.4531ZM162.305 42.4375C161.539 42.0156 160.82 41.5 160.148 40.8906C159.492 40.2656 158.781 39.6953 158.016 39.1797C157.922 39.0391 157.852 38.8984 157.805 38.7578C157.758 38.6016 157.75 38.4375 157.781 38.2656L158.016 37.7734C158.156 37.6797 158.297 37.6094 158.438 37.5625C158.594 37.5 158.766 37.4922 158.953 37.5391C159.688 37.9922 160.383 38.5078 161.039 39.0859C161.711 39.6641 162.375 40.2188 163.031 40.75C163.141 40.8906 163.219 41.0391 163.266 41.1953C163.312 41.3359 163.32 41.4844 163.289 41.6406L163.031 42.1562C162.938 42.25 162.82 42.3125 162.68 42.3438C162.555 42.375 162.43 42.4062 162.305 42.4375ZM187.43 53.8047L186.914 53.5938C186.758 53.4375 186.656 53.2656 186.609 53.0781C186.578 52.8906 186.57 52.6875 186.586 52.4688C186.805 49.8906 187.055 47.3281 187.336 44.7812C187.617 42.2344 187.906 39.6797 188.203 37.1172C188.359 37.0078 188.508 36.9297 188.648 36.8828C188.805 36.8203 188.977 36.8125 189.164 36.8594L189.68 37.1172C189.852 37.3359 189.938 37.6016 189.938 37.9141C189.938 38.2266 189.938 38.5234 189.938 38.8047L189.633 42.4844C190.789 43.1094 191.969 43.6875 193.172 44.2188C194.375 44.7344 195.586 45.25 196.805 45.7656C196.914 45.9219 196.992 46.0781 197.039 46.2344C197.102 46.3906 197.109 46.5703 197.062 46.7734L196.805 47.2891C196.648 47.3984 196.492 47.4766 196.336 47.5234C196.195 47.5703 196.031 47.5781 195.844 47.5469C194.734 47.125 193.633 46.6719 192.539 46.1875C191.461 45.7031 190.406 45.1953 189.375 44.6641C189.203 46.1641 189.047 47.6641 188.906 49.1641C188.781 50.6484 188.602 52.125 188.367 53.5938C188.227 53.6719 188.078 53.7422 187.922 53.8047C187.766 53.8516 187.602 53.8516 187.43 53.8047ZM213.984 54.7656C213.859 54.7344 213.742 54.6953 213.633 54.6484C213.523 54.6016 213.422 54.5469 213.328 54.4844C213.141 54.1094 213.023 53.6953 212.977 53.2422C212.93 52.7891 212.859 52.3438 212.766 51.9062V48.6719L212.719 48.25H208.078L207.891 48.625C207.766 48.7188 207.633 48.7891 207.492 48.8359C207.352 48.8828 207.203 48.8906 207.047 48.8594L206.578 48.625C206.453 48.4375 206.375 48.2344 206.344 48.0156C206.312 47.7969 206.281 47.5781 206.25 47.3594V45.1562L206.203 45.1094C206.328 44.2344 206.445 43.3516 206.555 42.4609C206.664 41.5703 206.922 40.7188 207.328 39.9062C207.453 39.8125 207.586 39.7422 207.727 39.6953C207.867 39.6484 208.016 39.6406 208.172 39.6719L208.641 39.9062C208.703 40 208.758 40.1016 208.805 40.2109C208.852 40.3203 208.875 40.4375 208.875 40.5625H209.766L209.812 40.5156H212.625L212.766 37.6094L212.719 37.5625C212.75 37.4375 212.789 37.3203 212.836 37.2109C212.883 37.1016 212.938 37 213 36.9062C213.125 36.8125 213.258 36.7422 213.398 36.6953C213.539 36.6484 213.688 36.6406 213.844 36.6719L214.312 36.9062C214.469 37.125 214.555 37.3828 214.57 37.6797C214.586 37.9766 214.594 38.2812 214.594 38.5938L214.453 40.5625H216.328L219.094 40.75L219.516 40.7031L219.984 40.9375C220.109 41.0625 220.195 41.2031 220.242 41.3594C220.289 41.5156 220.297 41.6875 220.266 41.875L220.172 42.8594C220.203 43.4844 220.234 44.1172 220.266 44.7578C220.297 45.3984 220.344 46.0312 220.406 46.6562L220.359 46.9375C220.422 47.0312 220.461 47.1328 220.477 47.2422C220.492 47.3516 220.5 47.4688 220.5 47.5938L220.266 48.0625C220.047 48.2188 219.789 48.3047 219.492 48.3203C219.195 48.3359 218.906 48.3438 218.625 48.3438L218.578 48.2969H215.109L214.547 48.25V48.625L214.594 48.6719V51.9062L214.922 54.0156L214.688 54.4844C214.594 54.5781 214.484 54.6406 214.359 54.6719C214.234 54.7031 214.109 54.7344 213.984 54.7656ZM218.578 46.4688V46.0938C218.484 45.5625 218.43 45.0234 218.414 44.4766C218.398 43.9297 218.375 43.3906 218.344 42.8594L218.391 42.5312L216.328 42.3906H214.453V44.7344L214.5 46.4219L215.109 46.4688H218.578ZM212.672 46.4219V44.7812L212.625 44.7344V42.3438H209.812L208.359 42.4375L208.031 45.1094L208.078 46.4219H212.672ZM237.984 53.6875L237.516 53.4531C237.328 53.0469 237.18 52.625 237.07 52.1875C236.961 51.75 236.891 51.2969 236.859 50.8281L237.141 50.2188C237.266 50.125 237.398 50.0547 237.539 50.0078C237.68 49.9609 237.828 49.9531 237.984 49.9844L238.453 50.2188C238.578 50.6562 238.711 51.1016 238.852 51.5547C238.992 52.0078 239.062 52.4844 239.062 52.9844L238.828 53.4531C238.703 53.5469 238.57 53.6172 238.43 53.6641C238.289 53.7109 238.141 53.7188 237.984 53.6875ZM238.453 47.6406L237.984 47.4062C237.547 45.8125 237.289 44.1875 237.211 42.5312C237.133 40.875 237.031 39.2188 236.906 37.5625C236.938 37.4375 236.977 37.3203 237.023 37.2109C237.07 37.1016 237.125 37 237.188 36.9062C237.312 36.8125 237.445 36.7422 237.586 36.6953C237.727 36.6484 237.875 36.6406 238.031 36.6719L238.5 36.9062C238.781 38.5625 238.953 40.2344 239.016 41.9219C239.078 43.6094 239.25 45.2812 239.531 46.9375L239.297 47.4062C239.172 47.5 239.039 47.5703 238.898 47.6172C238.758 47.6641 238.609 47.6719 238.453 47.6406Z" fill="#333333"/>
<path d="M3.09375 54.1562C2.96875 54.125 2.85156 54.0859 2.74219 54.0391C2.63281 53.9922 2.53125 53.9375 2.4375 53.875C2.34375 53.75 2.27344 53.6172 2.22656 53.4766C2.17969 53.3359 2.17188 53.1875 2.20312 53.0312L2.4375 52.5625C3.1875 52.1875 3.8125 51.6797 4.3125 51.0391C4.8125 50.3984 5.21875 49.7031 5.53125 48.9531C5.65625 48.6406 5.71875 48.3125 5.71875 47.9688C5.71875 47.625 5.71875 47.2812 5.71875 46.9375C5.65625 46.7188 5.58594 46.5 5.50781 46.2812C5.42969 46.0625 5.32812 45.8594 5.20312 45.6719L4.78125 45.5781C4.5 45.6094 4.22656 45.6875 3.96094 45.8125C3.69531 45.9375 3.40625 45.9844 3.09375 45.9531L2.625 45.7188C2.53125 45.5938 2.46094 45.4609 2.41406 45.3203C2.36719 45.1797 2.35938 45.0312 2.39062 44.875L2.625 44.4062C3.125 44.0625 3.53906 43.6172 3.86719 43.0703C4.19531 42.5234 4.51562 41.9844 4.82812 41.4531C4.92188 41.1406 4.99219 40.8281 5.03906 40.5156C5.08594 40.2031 5.09375 39.875 5.0625 39.5312C5 39.2812 4.92188 39.0469 4.82812 38.8281C4.73438 38.6094 4.60938 38.3906 4.45312 38.1719C4.35938 38.0469 4.24219 37.9688 4.10156 37.9375C3.96094 37.9062 3.8125 37.9062 3.65625 37.9375C3.25 38.0938 2.89062 38.3359 2.57812 38.6641C2.26562 38.9922 2.01562 39.3438 1.82812 39.7188C1.85938 39.875 1.85156 40.0156 1.80469 40.1406C1.75781 40.2656 1.6875 40.3906 1.59375 40.5156C1.46875 40.6094 1.33594 40.6797 1.19531 40.7266C1.05469 40.7734 0.90625 40.7812 0.75 40.75L0.28125 40.5156C0.15625 40.3594 0.078125 40.1953 0.046875 40.0234C0.015625 39.8516 0 39.6562 0 39.4375C0.15625 39 0.359375 38.5781 0.609375 38.1719C0.859375 37.7656 1.17188 37.3906 1.54688 37.0469C1.98438 36.7344 2.45312 36.4766 2.95312 36.2734C3.45312 36.0703 4 36.0156 4.59375 36.1094C4.84375 36.2031 5.07031 36.3438 5.27344 36.5312C5.47656 36.7188 5.6875 36.875 5.90625 37C6.3125 37.5625 6.59375 38.1641 6.75 38.8047C6.90625 39.4453 6.95312 40.1094 6.89062 40.7969C6.79688 41.3281 6.63281 41.8438 6.39844 42.3438C6.16406 42.8438 5.89062 43.3281 5.57812 43.7969L6.375 44.2656C6.6875 44.6094 6.9375 44.9922 7.125 45.4141C7.3125 45.8359 7.45312 46.2656 7.54688 46.7031V48.5781C7.39062 49.2344 7.14844 49.875 6.82031 50.5C6.49219 51.125 6.14062 51.7188 5.76562 52.2812C5.35938 52.6562 4.9375 53.0156 4.5 53.3594C4.0625 53.7031 3.59375 53.9688 3.09375 54.1562ZM18.3281 52.5625L17.8594 52.3281C17.7656 52.2031 17.6953 52.0703 17.6484 51.9297C17.6016 51.7891 17.5781 51.6406 17.5781 51.4844C17.9531 49.9531 18.4531 48.4688 19.0781 47.0312C19.7031 45.5938 20.2812 44.1406 20.8125 42.6719C19.8125 42.6094 18.8125 42.5469 17.8125 42.4844C16.8125 42.4219 15.8438 42.2188 14.9062 41.875C14.8125 41.75 14.7422 41.6172 14.6953 41.4766C14.6484 41.3359 14.6406 41.1875 14.6719 41.0312L14.9062 40.5625C15.0312 40.4688 15.1641 40.3984 15.3047 40.3516C15.4453 40.3047 15.6094 40.2969 15.7969 40.3281C16.7344 40.5156 17.6797 40.6328 18.6328 40.6797C19.5859 40.7266 20.5312 40.7969 21.4688 40.8906C21.7812 40.2031 22.0469 39.4922 22.2656 38.7578C22.4844 38.0234 22.75 37.2969 23.0625 36.5781C23.1875 36.4844 23.3203 36.4141 23.4609 36.3672C23.6016 36.3203 23.75 36.3125 23.9062 36.3438L24.375 36.5781C24.4688 36.7031 24.5391 36.8359 24.5859 36.9766C24.6328 37.1172 24.6406 37.2812 24.6094 37.4688L23.3906 41.0781C24.5469 41.2344 25.7031 41.3516 26.8594 41.4297C28.0156 41.5078 29.1562 41.6875 30.2812 41.9688C30.375 42.0938 30.4453 42.2266 30.4922 42.3672C30.5391 42.5078 30.5469 42.6562 30.5156 42.8125L30.2812 43.2812C30.125 43.4062 29.9531 43.4766 29.7656 43.4922C29.5781 43.5078 29.3906 43.5156 29.2031 43.5156C28.1406 43.3594 27.0703 43.25 25.9922 43.1875C24.9141 43.125 23.8438 43.0156 22.7812 42.8594L22.6875 42.9531C23.5625 44.3906 24.5078 45.7656 25.5234 47.0781C26.5391 48.3906 27.7188 49.5625 29.0625 50.5938L29.1094 51.1562L28.875 51.625C28.75 51.7188 28.6172 51.7891 28.4766 51.8359C28.3359 51.8828 28.1875 51.8906 28.0312 51.8594C27.3438 51.4531 26.7031 50.9609 26.1094 50.3828C25.5156 49.8047 24.9219 49.2344 24.3281 48.6719L21.8906 45.0156C21.4219 46.2344 20.9297 47.4453 20.4141 48.6484C19.8984 49.8516 19.4844 51.0781 19.1719 52.3281C19.0469 52.4219 18.9141 52.4922 18.7734 52.5391C18.6328 52.5859 18.4844 52.5938 18.3281 52.5625ZM52.7344 55.2344C52.4219 55.1094 52.1172 54.9922 51.8203 54.8828C51.5234 54.7734 51.2344 54.6406 50.9531 54.4844C50.8594 54.3594 50.7891 54.2266 50.7422 54.0859C50.6953 53.9453 50.6875 53.7969 50.7188 53.6406L50.9531 53.1719C51.0469 53.1094 51.1562 53.0547 51.2812 53.0078C51.4062 52.9609 51.5312 52.9375 51.6562 52.9375V52.7969L51.375 50.0781V47.875L50.6719 47.8281H46.0312L44.625 47.875L44.1562 47.6406C44.0625 47.5156 43.9844 47.3828 43.9219 47.2422C43.8594 47.1016 43.8438 46.9375 43.875 46.75L44.1094 46.2812C44.3594 46.0938 44.6641 46.0156 45.0234 46.0469C45.3828 46.0781 45.7188 46.0625 46.0312 46H50.6719L51.3281 46.0469L51.375 44.5469H45.2344C45.1094 44.6094 44.9844 44.6484 44.8594 44.6641C44.7344 44.6797 44.5938 44.6875 44.4375 44.6875L43.9688 44.4531C43.875 44.3281 43.8047 44.1953 43.7578 44.0547C43.7109 43.9141 43.7031 43.7656 43.7344 43.6094L43.9688 43.1406C44.125 43.0156 44.3047 42.9297 44.5078 42.8828C44.7109 42.8359 44.9062 42.7812 45.0938 42.7188H48.4688V42.3438L48.3281 39.4375L46.9219 39.3438H45.0469L44.5781 39.1094C44.4844 38.9844 44.4141 38.8516 44.3672 38.7109C44.3203 38.5703 44.3125 38.4219 44.3438 38.2656L44.5781 37.7969C44.8906 37.5781 45.2578 37.4766 45.6797 37.4922C46.1016 37.5078 46.5156 37.5156 46.9219 37.5156L48.4219 37.6094C48.4844 37.1406 48.5469 36.6641 48.6094 36.1797C48.6719 35.6953 48.7969 35.2344 48.9844 34.7969C49.1094 34.7031 49.2422 34.6328 49.3828 34.5859C49.5234 34.5391 49.6719 34.5312 49.8281 34.5625L50.2969 34.7969C50.3906 34.9219 50.4609 35.0625 50.5078 35.2188C50.5547 35.375 50.5625 35.5469 50.5312 35.7344L50.25 37.6562H52.125C52.3438 37.6875 52.5703 37.7031 52.8047 37.7031C53.0391 37.7031 53.2344 37.7812 53.3906 37.9375C53.4844 38.0625 53.5547 38.1953 53.6016 38.3359C53.6484 38.4766 53.6562 38.625 53.625 38.7812L53.3906 39.25C53.2344 39.375 53.0469 39.4531 52.8281 39.4844C52.6094 39.5156 52.3906 39.5312 52.1719 39.5312L52.125 39.4844H50.1562V39.9531L50.2969 42.7188H54.0938L54.5625 42.9531C54.6562 43.0781 54.7266 43.2109 54.7734 43.3516C54.8203 43.4922 54.8281 43.6406 54.7969 43.7969L54.5625 44.2656C54.375 44.3906 54.1641 44.4688 53.9297 44.5C53.6953 44.5312 53.4531 44.5469 53.2031 44.5469L53.1562 46.1406L54.0469 46.1875L54.6562 46.0938L55.125 46.3281C55.25 46.4531 55.3281 46.6016 55.3594 46.7734C55.3906 46.9453 55.3906 47.125 55.3594 47.3125L55.125 47.7812C54.9375 47.9375 54.7344 48.0156 54.5156 48.0156C54.2969 48.0156 54.0625 48.0156 53.8125 48.0156L53.2031 47.9688V50.0781C53.2656 50.8281 53.3359 51.5703 53.4141 52.3047C53.4922 53.0391 53.6094 53.7656 53.7656 54.4844L53.5312 54.9531C53.4062 55.0469 53.2812 55.1094 53.1562 55.1406C53.0312 55.1719 52.8906 55.2031 52.7344 55.2344ZM40.1719 54.25L39.7031 54.0156C39.5469 53.7969 39.4609 53.5547 39.4453 53.2891C39.4297 53.0234 39.4062 52.75 39.375 52.4688V50.2656L39.4688 48.2031H39.3281C38.8594 48.2969 38.4141 48.4453 37.9922 48.6484C37.5703 48.8516 37.125 49 36.6562 49.0938L36.1875 48.8594C36.0938 48.7344 36.0234 48.6016 35.9766 48.4609C35.9297 48.3203 35.9219 48.1719 35.9531 48.0156L36.1875 47.5469C36.6562 47.1719 37.1875 46.9062 37.7812 46.75C38.375 46.5938 38.9688 46.4375 39.5625 46.2812L39.7969 42.2969L37.3125 42.2031C37.2188 42.4219 37.1641 42.6641 37.1484 42.9297C37.1328 43.1953 37.125 43.4531 37.125 43.7031L37.1719 44.125L36.9375 44.5938C36.8125 44.6875 36.6797 44.7578 36.5391 44.8047C36.3984 44.8516 36.2344 44.8594 36.0469 44.8281L35.5312 44.5469C35.4688 44.4531 35.4141 44.3516 35.3672 44.2422C35.3203 44.1328 35.2812 44.0156 35.25 43.8906C35.3125 42.6719 35.5 41.4531 35.8125 40.2344C36.125 39.0156 36.5312 37.8438 37.0312 36.7188C37.1562 36.625 37.2891 36.5547 37.4297 36.5078C37.5703 36.4609 37.7188 36.4531 37.875 36.4844L38.3438 36.7188C38.4375 36.8438 38.5078 36.9766 38.5547 37.1172C38.6016 37.2578 38.6094 37.4219 38.5781 37.6094L37.6875 40.375L39.9375 40.4688C39.9688 40.0625 40 39.6484 40.0312 39.2266C40.0625 38.8047 40.2188 38.4375 40.5 38.125C40.625 38.0312 40.7578 37.9609 40.8984 37.9141C41.0391 37.8672 41.1875 37.8594 41.3438 37.8906L41.8125 38.125C41.9062 38.25 41.9766 38.3828 42.0234 38.5234C42.0703 38.6641 42.0781 38.8281 42.0469 39.0156C41.9219 39.2344 41.8516 39.4844 41.8359 39.7656C41.8203 40.0469 41.7969 40.3125 41.7656 40.5625C42.1406 40.5938 42.5234 40.6016 42.9141 40.5859C43.3047 40.5703 43.6562 40.6719 43.9688 40.8906C44.0625 41.0156 44.1328 41.1484 44.1797 41.2891C44.2266 41.4297 44.2344 41.5781 44.2031 41.7344L43.9688 42.2031C43.875 42.2969 43.7578 42.3594 43.6172 42.3906C43.4766 42.4219 43.3438 42.4531 43.2188 42.4844L41.625 42.3906L41.4375 45.8125H41.5312C41.75 45.75 41.9609 45.6953 42.1641 45.6484C42.3672 45.6016 42.5938 45.5781 42.8438 45.5781L43.3125 45.8125C43.4062 45.9375 43.4766 46.0703 43.5234 46.2109C43.5703 46.3516 43.5781 46.5 43.5469 46.6562L43.3125 47.125C43.0312 47.3125 42.7188 47.4297 42.375 47.4766C42.0312 47.5234 41.6875 47.5938 41.3438 47.6875L41.2031 50.2656V52.4688L41.25 53.5469L41.0156 54.0156C40.8906 54.1094 40.7578 54.1797 40.6172 54.2266C40.4766 54.2734 40.3281 54.2812 40.1719 54.25ZM47.5781 51.9531C47.0156 51.8594 46.4531 51.75 45.8906 51.625C45.3281 51.5 44.7812 51.2969 44.25 51.0156C44.1562 50.8906 44.0859 50.7578 44.0391 50.6172C43.9922 50.4766 43.9844 50.3281 44.0156 50.1719L44.25 49.7031C44.375 49.6094 44.5078 49.5391 44.6484 49.4922C44.7891 49.4453 44.9531 49.4375 45.1406 49.4688C45.6719 49.6875 46.2188 49.8516 46.7812 49.9609C47.3438 50.0703 47.9062 50.2188 48.4688 50.4062C48.5625 50.5312 48.6328 50.6641 48.6797 50.8047C48.7266 50.9453 48.7344 51.0938 48.7031 51.25L48.4688 51.7188C48.3438 51.8125 48.2109 51.8828 48.0703 51.9297C47.9297 51.9766 47.7656 51.9844 47.5781 51.9531ZM65.0625 55.0469L64.5938 54.8125C64.5 54.6875 64.4297 54.5547 64.3828 54.4141C64.3359 54.2734 64.3281 54.1094 64.3594 53.9219C64.4844 53.2656 64.6875 52.6406 64.9688 52.0469C65.25 51.4531 65.5469 50.8594 65.8594 50.2656C66.0469 50.1094 66.2344 49.9609 66.4219 49.8203C66.6094 49.6797 66.8438 49.625 67.125 49.6562L67.5938 49.8906C67.6875 50.0156 67.7578 50.1484 67.8047 50.2891C67.8516 50.4297 67.8594 50.5781 67.8281 50.7344L67.5938 51.2031C67.4688 51.2656 67.375 51.3516 67.3125 51.4609C67.25 51.5703 67.1875 51.6719 67.125 51.7656C66.875 52.2656 66.6562 52.7656 66.4688 53.2656C66.2812 53.7656 66.0938 54.2812 65.9062 54.8125C65.7812 54.9062 65.6484 54.9766 65.5078 55.0234C65.3672 55.0703 65.2188 55.0781 65.0625 55.0469ZM74.7188 54.625L73.0312 53.6875C72.75 53.25 72.4531 52.8281 72.1406 52.4219C71.8281 52.0156 71.6719 51.5469 71.6719 51.0156L71.9062 50.5469C72.0312 50.4531 72.1641 50.3828 72.3047 50.3359C72.4453 50.2891 72.5938 50.2812 72.75 50.3125L73.2188 50.5469C73.375 50.8281 73.5312 51.1172 73.6875 51.4141C73.8438 51.7109 74.0312 52 74.25 52.2812L75.6094 53.0781C75.7031 53.2031 75.7734 53.3359 75.8203 53.4766C75.8672 53.6172 75.875 53.7656 75.8438 53.9219L75.6094 54.3906C75.4844 54.4844 75.3516 54.5547 75.2109 54.6016C75.0703 54.6484 74.9062 54.6562 74.7188 54.625ZM73.5938 49.5625L70.3125 49.4219H64.0781L61.7344 49.5156C61.6094 49.4844 61.4922 49.4453 61.3828 49.3984C61.2734 49.3516 61.1719 49.2969 61.0781 49.2344C60.9844 49.1094 60.9141 48.9766 60.8672 48.8359C60.8203 48.6953 60.8125 48.5469 60.8438 48.3906L61.0781 47.9219C61.2969 47.7344 61.5625 47.6484 61.875 47.6641C62.1875 47.6797 62.4844 47.6875 62.7656 47.6875V47.5C62.6406 46.875 62.5547 46.2422 62.5078 45.6016C62.4609 44.9609 62.3906 44.3125 62.2969 43.6562C62.3906 42.7812 62.4531 41.8906 62.4844 40.9844C62.5156 40.0781 62.6406 39.2031 62.8594 38.3594C63.1094 38.2031 63.3984 38.1172 63.7266 38.1016C64.0547 38.0859 64.375 38.0781 64.6875 38.0781L66.3281 38.1719C66.3594 37.6719 66.3828 37.1797 66.3984 36.6953C66.4141 36.2109 66.5312 35.75 66.75 35.3125C66.875 35.2188 67.0078 35.1484 67.1484 35.1016C67.2891 35.0547 67.4375 35.0469 67.5938 35.0781L68.0625 35.3125C68.1562 35.4375 68.2266 35.5781 68.2734 35.7344C68.3203 35.8906 68.3281 36.0625 68.2969 36.25C68.2344 36.5625 68.2031 36.8906 68.2031 37.2344C68.2031 37.5781 68.1875 37.9219 68.1562 38.2656L70.8281 38.3125C70.9844 37.7812 71.0859 37.2344 71.1328 36.6719C71.1797 36.1094 71.2969 35.5625 71.4844 35.0312C71.6094 34.9375 71.7422 34.8672 71.8828 34.8203C72.0234 34.7734 72.1719 34.7656 72.3281 34.7969L72.7969 35.0312C72.9531 35.2188 73.0312 35.4453 73.0312 35.7109C73.0312 35.9766 73.0312 36.2344 73.0312 36.4844L72.7031 38.4062H75.9844L76.4531 38.6406C76.5469 38.7656 76.6172 38.8984 76.6641 39.0391C76.7109 39.1797 76.7188 39.3281 76.6875 39.4844C76.5 40.2344 76.3672 40.9922 76.2891 41.7578C76.2109 42.5234 76.1094 43.2969 75.9844 44.0781V47.1719L75.8906 47.5938L75.9375 47.6406L76.4062 47.5938L76.875 47.8281C76.9688 47.9531 77.0391 48.0859 77.0859 48.2266C77.1328 48.3672 77.1406 48.5156 77.1094 48.6719L76.875 49.1406C76.6875 49.2969 76.4766 49.3984 76.2422 49.4453C76.0078 49.4922 75.7656 49.5312 75.5156 49.5625H73.5938ZM73.9688 47.7344V47.5938L74.1562 47.0781V44.7344L74.1094 44.6875L73.5469 44.875L72.1406 44.7812C72.1094 45.25 72.0781 45.7188 72.0469 46.1875C72.0156 46.6562 71.8906 47.0938 71.6719 47.5L71.5312 47.5938C71.9062 47.6562 72.3047 47.6875 72.7266 47.6875C73.1484 47.6875 73.5625 47.7031 73.9688 47.7344ZM70.5 47.5938L70.3594 47.5C70.2656 47.375 70.1953 47.2422 70.1484 47.1016C70.1016 46.9609 70.0938 46.7969 70.125 46.6094L70.3125 44.5938C69.9062 44.5312 69.5078 44.4922 69.1172 44.4766C68.7266 44.4609 68.3125 44.4531 67.875 44.4531V44.7812L68.0156 45.625L67.7812 46.0938C67.6562 46.1875 67.5234 46.2578 67.3828 46.3047C67.2422 46.3516 67.0938 46.3594 66.9375 46.3281L66.4688 46.0938C66.3125 45.875 66.2109 45.6406 66.1641 45.3906C66.1172 45.1406 66.0781 44.875 66.0469 44.5938C65.7344 44.5938 65.4219 44.6016 65.1094 44.6172C64.7969 44.6328 64.5156 44.5781 64.2656 44.4531L64.2188 44.6875C64.2812 45.1562 64.3359 45.6406 64.3828 46.1406C64.4297 46.6406 64.5 47.125 64.5938 47.5938H70.3125L70.4531 47.6406L70.5 47.5938ZM74.2969 43.2344V42.9531L74.6719 40.2344H72.6562L72.5156 40.1875L72.2812 42.9531C72.625 42.9844 72.9688 43 73.3125 43C73.6562 43 73.9688 43.0938 74.25 43.2812L74.2969 43.2344ZM64.3125 42.9062C64.5312 42.8125 64.7812 42.7656 65.0625 42.7656C65.3438 42.7656 65.625 42.7656 65.9062 42.7656V42.5312L65.8594 42.4844L66.1875 40.0469L64.3594 39.9062L64.1719 42.9062L64.2656 42.9531L64.3125 42.9062ZM70.4531 42.7656V42.4844L70.6875 40.1406L67.9688 40.0938L67.6875 42.4844L67.7344 42.6719H67.875L69.2344 42.625L70.4531 42.7656Z" fill="#E92483"/>
</svg>
