<svg width="120" height="49" viewBox="0 0 120 49" fill="none" xmlns="http://www.w3.org/2000/svg">
<path d="M1.875 20.625C1.75 20.5938 1.63281 20.5547 1.52344 20.5078C1.41406 20.4609 1.3125 20.4062 1.21875 20.3438C1.125 20.2188 1.05469 20.0859 1.00781 19.9453C0.960938 19.8047 0.9375 19.6562 0.9375 19.5C1.09375 17 1.21875 14.4844 1.3125 11.9531C1.40625 9.42188 1.75 6.9375 2.34375 4.5C2.46875 4.40625 2.60156 4.33594 2.74219 4.28906C2.88281 4.24219 3.03125 4.23437 3.1875 4.26562L3.65625 4.5C3.75 4.625 3.82031 4.75781 3.86719 4.89844C3.91406 5.03906 3.92188 5.20312 3.89062 5.39062C3.48438 7.54688 3.23438 9.73438 3.14062 11.9531C3.04688 14.1719 2.9375 16.3906 2.8125 18.6094H3C4 18.5156 5.00781 18.4531 6.02344 18.4219C7.03906 18.3906 8.0625 18.3594 9.09375 18.3281C9.28125 18.4219 9.47656 18.4922 9.67969 18.5391C9.88281 18.5859 10.0625 18.6719 10.2188 18.7969C10.3125 18.9219 10.3828 19.0547 10.4297 19.1953C10.4766 19.3359 10.4844 19.4844 10.4531 19.6406L10.2188 20.1094C10.125 20.2031 10.0156 20.2656 9.89062 20.2969C9.76562 20.3281 9.64062 20.3594 9.51562 20.3906C9.26562 20.3281 9.00781 20.2656 8.74219 20.2031C8.47656 20.1406 8.20312 20.125 7.92188 20.1562C6.92188 20.25 5.90625 20.2969 4.875 20.2969C3.84375 20.2969 2.84375 20.4062 1.875 20.625ZM18.9844 22.0312L17.9062 21.9375H16.0312C15.9062 21.9062 15.7891 21.8672 15.6797 21.8203C15.5703 21.7734 15.4688 21.7188 15.375 21.6562C15.2812 21.5312 15.2109 21.3984 15.1641 21.2578C15.1172 21.1172 15.1094 20.9688 15.1406 20.8125L15.375 20.3438C15.5312 20.2188 15.7188 20.1484 15.9375 20.1328C16.1562 20.1172 16.375 20.1094 16.5938 20.1094C16.6875 19.1719 16.7734 18.2266 16.8516 17.2734C16.9297 16.3203 17 15.3594 17.0625 14.3906V4.875L17.0156 4.17188C16.6719 4.20313 16.3359 4.19531 16.0078 4.14844C15.6797 4.10156 15.375 3.98438 15.0938 3.79688C15 3.67187 14.9297 3.53906 14.8828 3.39844C14.8359 3.25781 14.8281 3.10937 14.8594 2.95312L15.0938 2.48438C15.2188 2.39062 15.3516 2.32031 15.4922 2.27344C15.6328 2.22656 15.7969 2.21875 15.9844 2.25C16.2656 2.34375 16.5781 2.38281 16.9219 2.36719C17.2656 2.35156 17.5938 2.35937 17.9062 2.39062H20.2969L20.7656 2.625C20.8594 2.75 20.9375 2.88281 21 3.02344C21.0625 3.16406 21.0781 3.32812 21.0469 3.51562L20.8125 3.98438C20.5312 4.17188 20.2188 4.25781 19.875 4.24219C19.5312 4.22656 19.1875 4.21875 18.8438 4.21875V4.82812L18.8906 4.875V14.3906C18.8281 15.3594 18.7578 16.3203 18.6797 17.2734C18.6016 18.2266 18.5156 19.1875 18.4219 20.1562C18.7969 20.2188 19.1797 20.2344 19.5703 20.2031C19.9609 20.1719 20.3125 20.25 20.625 20.4375C20.7188 20.5625 20.7891 20.6953 20.8359 20.8359C20.8828 20.9766 20.8906 21.1406 20.8594 21.3281L20.625 21.7969C20.4062 21.9844 20.1484 22.0703 19.8516 22.0547C19.5547 22.0391 19.2656 22.0312 18.9844 22.0312ZM33.0938 19.6406L32.6719 19.5L32.25 19.5469L31.7812 19.3125C31.0938 17.625 30.3984 15.9297 29.6953 14.2266C28.9922 12.5234 28.3125 10.8125 27.6562 9.09375C27.5 10.7812 27.3281 12.4609 27.1406 14.1328C26.9531 15.8047 26.6094 17.4531 26.1094 19.0781C25.9844 19.1719 25.8516 19.2422 25.7109 19.2891C25.5703 19.3359 25.4219 19.3438 25.2656 19.3125L24.7969 19.0781C24.7031 18.9844 24.6406 18.8672 24.6094 18.7266C24.5781 18.5859 24.5469 18.4531 24.5156 18.3281C25.0469 16.3281 25.375 14.3125 25.5 12.2812C25.625 10.25 25.875 8.23438 26.25 6.23438L26.625 5.8125C26.7812 5.6875 26.9688 5.61719 27.1875 5.60156C27.4062 5.58594 27.625 5.57812 27.8438 5.57812L28.3125 5.8125C29 7.53125 29.6953 9.26562 30.3984 11.0156C31.1016 12.7656 31.8125 14.5 32.5312 16.2188L32.7656 14.25V11.7656L33.2812 6.75V4.35938C33.2188 4.20313 33.1641 4.05469 33.1172 3.91406C33.0703 3.77344 33.0625 3.60938 33.0938 3.42188L33.3281 2.95312C33.4531 2.85938 33.5859 2.78906 33.7266 2.74219C33.8672 2.69531 34.0156 2.6875 34.1719 2.71875L34.6406 2.95312C34.7969 3.14062 34.8984 3.35156 34.9453 3.58594C34.9922 3.82031 35.0469 4.0625 35.1094 4.3125V6.75L34.5938 11.7656V14.25C34.5 15.125 34.4062 15.9922 34.3125 16.8516C34.2188 17.7109 34.0469 18.5469 33.7969 19.3594C33.7031 19.4531 33.5938 19.5156 33.4688 19.5469C33.3438 19.5781 33.2188 19.6094 33.0938 19.6406ZM44.7656 20.8594L41.625 20.6719H39.4688L39.0469 20.5781C38.9531 20.6719 38.8438 20.7266 38.7188 20.7422C38.5938 20.7578 38.4531 20.7656 38.2969 20.7656L37.8281 20.5312C37.7344 20.375 37.6641 20.2109 37.6172 20.0391C37.5703 19.8672 37.5469 19.6875 37.5469 19.5L37.875 15.5156V13.0781C37.6562 11.4531 37.5234 9.82031 37.4766 8.17969C37.4297 6.53906 37.3125 4.90625 37.125 3.28125L37.3594 2.8125C37.4844 2.71875 37.6172 2.64844 37.7578 2.60156C37.8984 2.55469 38.0469 2.54687 38.2031 2.57812C39.2969 2.82812 40.3906 3.04688 41.4844 3.23438C42.5781 3.42188 43.6719 3.60938 44.7656 3.79688C44.8594 3.92188 44.9297 4.05469 44.9766 4.19531C45.0234 4.33594 45.0312 4.48438 45 4.64062L44.7656 5.10938C44.5781 5.23438 44.3828 5.3125 44.1797 5.34375C43.9766 5.375 43.75 5.39062 43.5 5.39062C42.7812 5.29688 42.0547 5.17969 41.3203 5.03906C40.5859 4.89844 39.8594 4.76563 39.1406 4.64062V5.39062L39.375 9.60938C40.4062 9.85938 41.4297 10.1172 42.4453 10.3828C43.4609 10.6484 44.4688 10.9062 45.4688 11.1562C45.5625 11.2812 45.6328 11.4141 45.6797 11.5547C45.7266 11.6953 45.7344 11.8438 45.7031 12L45.4688 12.4688C45.3438 12.5625 45.2109 12.6328 45.0703 12.6797C44.9297 12.7266 44.7656 12.7344 44.5781 12.7031C43.7344 12.5781 42.8984 12.3984 42.0703 12.1641C41.2422 11.9297 40.4062 11.7031 39.5625 11.4844L39.5156 11.5781L39.7031 13.0781V15.5156L39.4688 18.8438H41.625C42.3438 18.9062 43.0781 18.9453 43.8281 18.9609C44.5781 18.9766 45.2969 19.0781 45.9844 19.2656C46.0781 19.3906 46.1484 19.5234 46.1953 19.6641C46.2422 19.8047 46.25 19.9688 46.2188 20.1562L45.9844 20.625C45.8281 20.75 45.6406 20.8203 45.4219 20.8359C45.2031 20.8516 44.9844 20.8594 44.7656 20.8594ZM65.0391 23.6719C64.8984 23.625 64.7656 23.5781 64.6406 23.5312C64.5312 23.4844 64.4219 23.4219 64.3125 23.3438C64.2188 23.2188 64.1406 23.0781 64.0781 22.9219C64.0312 22.7656 64.0234 22.6016 64.0547 22.4297C64.7734 21.3672 65.3203 20.2344 65.6953 19.0312C66.0703 17.8281 66.2422 16.5781 66.2109 15.2812C66.1641 14.375 66.0078 13.4844 65.7422 12.6094C65.4766 11.7188 65 10.9297 64.3125 10.2422C63.8438 9.80469 63.3281 9.47656 62.7656 9.25781C62.2031 9.03906 61.6016 8.92969 60.9609 8.92969C60.7578 10.4141 60.3359 11.8438 59.6953 13.2188C59.0547 14.5938 58.2188 15.8438 57.1875 16.9688C56.5781 17.375 55.9141 17.6719 55.1953 17.8594C54.4922 18.0469 53.7734 18.1562 53.0391 18.1875C52.7578 18.125 52.4922 18.0625 52.2422 18C51.9922 17.9219 51.7422 17.7969 51.4922 17.625C51.1641 17.2812 50.9062 16.8984 50.7188 16.4766C50.5312 16.0547 50.4062 15.625 50.3438 15.1875C50.3438 14.2969 50.4844 13.4453 50.7656 12.6328C51.0469 11.8203 51.4609 11.0625 52.0078 10.3594C53.1016 9.20312 54.3594 8.375 55.7812 7.875C57.2031 7.35938 58.6406 6.97656 60.0938 6.72656C61.25 6.80469 62.375 7.03125 63.4688 7.40625C64.5781 7.78125 65.5234 8.4375 66.3047 9.375C67.0547 10.4062 67.5703 11.5312 67.8516 12.75C68.1484 13.9688 68.2578 15.2031 68.1797 16.4531C68.0859 17.6719 67.8438 18.8672 67.4531 20.0391C67.0625 21.2109 66.5078 22.3125 65.7891 23.3438C65.6953 23.4531 65.5781 23.5234 65.4375 23.5547C65.2969 23.5859 65.1641 23.625 65.0391 23.6719ZM55.9219 15.3984C56.7031 14.5078 57.3438 13.5234 57.8438 12.4453C58.3594 11.3516 58.7031 10.2266 58.875 9.07031H58.6172C57.6641 9.24219 56.7344 9.55469 55.8281 10.0078C54.9375 10.4453 54.1562 11.0156 53.4844 11.7188C53.1094 12.2344 52.8203 12.7812 52.6172 13.3594C52.4141 13.9375 52.3281 14.5469 52.3594 15.1875C52.4375 15.3281 52.4922 15.4766 52.5234 15.6328C52.5547 15.7734 52.6172 15.9141 52.7109 16.0547L53.7422 16.1953C54.1484 16.1641 54.5234 16.0781 54.8672 15.9375C55.2266 15.7812 55.5781 15.6016 55.9219 15.3984Z" fill="#333333"/>
<path d="M76.3594 23.2031L75.8906 22.9688C75.5156 22.1562 75.3125 21.2969 75.2812 20.3906C75.25 19.4844 75.1875 18.5938 75.0938 17.7188V13.125C75.2188 12.0625 75.3281 10.9922 75.4219 9.91406C75.5156 8.83594 75.75 7.78125 76.125 6.75C76.2812 6.625 76.4609 6.54688 76.6641 6.51562C76.8672 6.48437 77.0781 6.46875 77.2969 6.46875L77.7656 6.70312L78 7.26562H78.6562L82.1719 6.98438C82.4531 6.39062 82.7578 5.79688 83.0859 5.20312C83.4141 4.60937 83.7812 4.04687 84.1875 3.51562C84.3125 3.42188 84.4453 3.35156 84.5859 3.30469C84.7266 3.25781 84.875 3.25 85.0312 3.28125L85.5 3.51562C85.5938 3.64063 85.6641 3.77344 85.7109 3.91406C85.7578 4.05469 85.7656 4.20313 85.7344 4.35938L84.2812 6.9375H84.7969L89.6719 6.70312C90.0156 6.76562 90.3828 6.79688 90.7734 6.79688C91.1641 6.79688 91.5156 6.89062 91.8281 7.07812C91.9531 7.20313 92.0312 7.35156 92.0625 7.52344C92.0938 7.69531 92.0938 7.875 92.0625 8.0625C91.9375 8.65625 91.8672 9.28125 91.8516 9.9375C91.8359 10.5938 91.7969 11.2344 91.7344 11.8594C91.6406 13.3906 91.7656 14.8906 92.1094 16.3594C92.4531 17.8281 92.7344 19.2969 92.9531 20.7656L92.4844 21.5625C92.3594 21.6562 92.2266 21.7266 92.0859 21.7734C91.9453 21.8203 91.7812 21.8281 91.5938 21.7969L90.2344 21C90.1406 20.875 90.0703 20.7422 90.0234 20.6016C89.9766 20.4609 89.9688 20.3125 90 20.1562L90.2344 19.6875C90.3281 19.625 90.4375 19.5703 90.5625 19.5234C90.6875 19.4766 90.8125 19.4531 90.9375 19.4531V19.3125C90.5938 18.0938 90.3281 16.8672 90.1406 15.6328C89.9531 14.3984 89.875 13.1406 89.9062 11.8594L90.0938 8.57812L88.4531 8.53125L83.3906 8.8125L83.2031 9.32812L83.25 9.375L83.4375 9.09375C83.5625 9 83.6953 8.92969 83.8359 8.88281C83.9766 8.83594 84.1406 8.82812 84.3281 8.85938L84.9375 9.14062C85.4688 10.2656 86.1875 11.2344 87.0938 12.0469C88 12.8594 88.9219 13.6562 89.8594 14.4375L89.9062 15L89.6719 15.4688C89.5469 15.5625 89.4141 15.6328 89.2734 15.6797C89.1328 15.7266 88.9844 15.7344 88.8281 15.7031C88.0156 15.2031 87.2422 14.6172 86.5078 13.9453C85.7734 13.2734 85.0625 12.5938 84.375 11.9062L83.4375 10.4062C83.3438 10.2812 83.2734 10.1484 83.2266 10.0078C83.1797 9.86719 83.1719 9.71875 83.2031 9.5625L83.25 9.375L83.2031 9.32812C82.6719 10.5781 82.2031 11.8594 81.7969 13.1719C81.3906 14.4844 81.0312 15.7969 80.7188 17.1094C80.5938 17.2031 80.4609 17.2734 80.3203 17.3203C80.1797 17.3672 80.0312 17.375 79.875 17.3438L79.4062 17.1094C79.3438 17.0156 79.2891 16.9141 79.2422 16.8047C79.1953 16.6953 79.1562 16.5781 79.125 16.4531C79.3438 15.1719 79.6484 13.8984 80.0391 12.6328C80.4297 11.3672 80.8594 10.125 81.3281 8.90625H81.0938L77.3438 9.09375L76.9219 13.125V17.7188C77.0156 18.5 77.0781 19.2969 77.1094 20.1094C77.1406 20.9219 77.25 21.7188 77.4375 22.5L77.2031 22.9688C77.0781 23.0625 76.9453 23.1328 76.8047 23.1797C76.6641 23.2266 76.5156 23.2344 76.3594 23.2031ZM104.906 23.25L104.438 23.0156C104.188 22.5469 104.055 22.0391 104.039 21.4922C104.023 20.9453 104 20.3906 103.969 19.8281C104.062 19.3281 104.133 18.8281 104.18 18.3281C104.227 17.8281 104.312 17.3438 104.438 16.875L104.391 16.8281C103.828 17.4531 103.312 18.1094 102.844 18.7969C102.375 19.4844 101.922 20.1875 101.484 20.9062C101.359 21 101.227 21.0703 101.086 21.1172C100.945 21.1641 100.797 21.1719 100.641 21.1406L100.172 20.9062C100.078 20.7812 100.008 20.6484 99.9609 20.5078C99.9141 20.3672 99.9062 20.2031 99.9375 20.0156C100.906 18.4219 101.969 16.8984 103.125 15.4453C104.281 13.9922 105.5 12.6094 106.781 11.2969C106.969 11.1406 107.172 11.0156 107.391 10.9219C107.609 10.8281 107.859 10.7969 108.141 10.8281L108.609 11.0625C108.703 11.1875 108.766 11.3125 108.797 11.4375C108.828 11.5625 108.859 11.7031 108.891 11.8594L108.984 11.9062C109.516 12.7188 110.195 13.375 111.023 13.875C111.852 14.375 112.688 14.8438 113.531 15.2812C113.969 15.5 114.406 15.6953 114.844 15.8672C115.281 16.0391 115.719 16.2344 116.156 16.4531C116.25 16.5781 116.32 16.7109 116.367 16.8516C116.414 16.9922 116.422 17.1406 116.391 17.2969L116.156 17.7656C116.031 17.8594 115.898 17.9297 115.758 17.9766C115.617 18.0234 115.453 18.0312 115.266 18C114.734 17.8438 114.227 17.6484 113.742 17.4141C113.258 17.1797 112.766 16.9375 112.266 16.6875L112.219 16.7812C112.281 17.5938 112.375 18.3984 112.5 19.1953C112.625 19.9922 112.812 20.7656 113.062 21.5156L112.734 22.1719C112.609 22.2656 112.469 22.3359 112.312 22.3828C112.156 22.4297 112 22.4531 111.844 22.4531L111.797 22.4062H106.734L105.984 22.5469L105.75 23.0156C105.625 23.1094 105.492 23.1797 105.352 23.2266C105.211 23.2734 105.062 23.2812 104.906 23.25ZM110.859 20.5781V20.3906L110.531 18.1875L109.406 18.1406H107.391L106.031 18.2812L105.797 19.8281L105.844 20.6719H106.078L106.734 20.5781H110.859ZM111.469 16.3125L108.516 14.3438L107.812 13.3125L107.484 13.1719C107.016 13.6094 106.586 14.0703 106.195 14.5547C105.805 15.0391 105.422 15.5156 105.047 15.9844L105.141 16.0312L105.562 15.9844L106.031 16.2188L106.172 16.4062H106.594L107.391 16.3125H109.406L111.234 16.4062L111.469 16.3125ZM101.344 15.2344L100.875 15C100.781 14.875 100.711 14.7422 100.664 14.6016C100.617 14.4609 100.609 14.2969 100.641 14.1094L101.016 13.4062L100.969 13.3594C100.875 13.4531 100.766 13.5078 100.641 13.5234C100.516 13.5391 100.375 13.5469 100.219 13.5469L99.75 13.3125C99.6562 13.1875 99.5859 13.0625 99.5391 12.9375C99.4922 12.8125 99.4531 12.6719 99.4219 12.5156V9.60938L99.375 9.5625C99.4688 8.78125 99.5391 7.99219 99.5859 7.19531C99.6328 6.39844 99.7969 5.64062 100.078 4.92188C100.203 4.82812 100.336 4.75781 100.477 4.71094C100.617 4.66406 100.766 4.65625 100.922 4.6875L101.391 4.92188C101.484 5.04688 101.555 5.17969 101.602 5.32031C101.648 5.46094 101.656 5.625 101.625 5.8125L101.578 6.04688L106.734 6.28125L106.781 6.23438L106.5 5.15625L106.641 2.0625L106.594 2.01562C106.625 1.89062 106.664 1.77344 106.711 1.66406C106.758 1.55469 106.812 1.45312 106.875 1.35938C107 1.26562 107.133 1.19531 107.273 1.14844C107.414 1.10156 107.562 1.09375 107.719 1.125L108.188 1.35938C108.375 1.64062 108.469 1.95313 108.469 2.29688C108.469 2.64062 108.469 2.98438 108.469 3.32812L108.375 5.25L108.609 6.375L109.594 6.42188H111.609L111.656 6.46875H115.406L115.875 6.70312C115.969 6.82813 116.039 6.96094 116.086 7.10156C116.133 7.24219 116.141 7.39063 116.109 7.54688C115.953 7.76563 115.859 8.01562 115.828 8.29688C115.797 8.57812 115.766 8.85938 115.734 9.14062L115.922 12L115.688 12.4688C115.562 12.5625 115.43 12.6328 115.289 12.6797C115.148 12.7266 115 12.7344 114.844 12.7031L114.375 12.4688C114.156 11.9688 114.039 11.4297 114.023 10.8516C114.008 10.2734 113.969 9.70312 113.906 9.14062L114 8.29688H111.656L111.609 8.25H109.594L101.344 7.875L101.203 9.5625L101.25 9.60938V12.375L101.297 12.8438L101.25 12.9844L101.297 13.0312C101.672 12.4688 102.062 11.9062 102.469 11.3438C102.875 10.7812 103.312 10.2344 103.781 9.70312C103.969 9.57812 104.156 9.45312 104.344 9.32812C104.531 9.20312 104.75 9.15625 105 9.1875L105.469 9.42188C105.562 9.54688 105.633 9.67969 105.68 9.82031C105.727 9.96094 105.734 10.1094 105.703 10.2656L105.469 10.7344L105.047 10.9688C104.516 11.5938 104.008 12.2422 103.523 12.9141C103.039 13.5859 102.594 14.2812 102.188 15C102.062 15.0938 101.93 15.1641 101.789 15.2109C101.648 15.2578 101.5 15.2656 101.344 15.2344ZM113.062 14.1562C112.688 13.9688 112.336 13.7344 112.008 13.4531C111.68 13.1719 111.344 12.9062 111 12.6562C110.625 12.2188 110.219 11.7969 109.781 11.3906C109.344 10.9844 109.109 10.4844 109.078 9.89062L109.312 9.42188C109.438 9.32812 109.57 9.25781 109.711 9.21094C109.852 9.16406 110 9.15625 110.156 9.1875L110.625 9.42188C110.812 9.79688 111.07 10.1328 111.398 10.4297C111.727 10.7266 112.016 11.0469 112.266 11.3906L113.953 12.7031C114.047 12.7969 114.102 12.9062 114.117 13.0312C114.133 13.1562 114.141 13.2969 114.141 13.4531L113.906 13.9219C113.781 14.0156 113.648 14.0859 113.508 14.1328C113.367 14.1797 113.219 14.1875 113.062 14.1562ZM101.062 13.3594L101.016 13.3125L100.969 13.3594L101.016 13.4062L101.062 13.3594ZM101.156 13.2656L101.109 13.2188L101.062 13.2656L101.109 13.3125L101.156 13.2656ZM101.25 13.125L101.203 13.0781L101.156 13.125L101.203 13.1719L101.25 13.125Z" fill="#E92483"/>
<path d="M41.9531 47.8496C41.875 47.8301 41.8018 47.8057 41.7334 47.7764C41.665 47.7471 41.6016 47.7129 41.543 47.6738C40.9961 46.9316 40.5811 46.126 40.2979 45.2568C40.0146 44.3877 39.8828 43.4941 39.9023 42.5762C39.9805 41.4434 40.2051 40.3301 40.5762 39.2363C40.9473 38.1426 41.4844 37.1367 42.1875 36.2188C42.4023 36.0234 42.6123 35.833 42.8174 35.6475C43.0225 35.4619 43.2715 35.3594 43.5645 35.3398L43.8574 35.4863C43.916 35.5645 43.96 35.6475 43.9893 35.7354C44.0186 35.8232 44.0234 35.916 44.0039 36.0137L43.8574 36.3066C43.7012 36.3848 43.5547 36.4922 43.418 36.6289C43.2812 36.7656 43.1348 36.8926 42.9785 37.0098C42.3535 37.9668 41.8701 38.9873 41.5283 40.0713C41.1865 41.1553 41.0254 42.2734 41.0449 43.4258C41.1035 44.0117 41.2451 44.5879 41.4697 45.1543C41.6943 45.7207 41.9629 46.2578 42.2754 46.7656L42.4219 46.8535C42.4805 46.9316 42.5244 47.0146 42.5537 47.1025C42.583 47.1904 42.5879 47.2832 42.5684 47.3809L42.4219 47.6738C42.3633 47.7324 42.29 47.7715 42.2021 47.791C42.1143 47.8105 42.0312 47.8301 41.9531 47.8496ZM57.3633 42.4004L51.5625 41.9023H50.1855L49.3652 41.8145H47.4316C47.2754 41.7949 47.1094 41.79 46.9336 41.7998C46.7578 41.8096 46.6016 41.7559 46.4648 41.6387C46.4062 41.5605 46.3623 41.4775 46.333 41.3896C46.3037 41.3018 46.2988 41.209 46.3184 41.1113L46.4648 40.8184C46.6016 40.7207 46.748 40.667 46.9043 40.6572C47.0605 40.6475 47.2266 40.6426 47.4023 40.6426L47.4316 40.6719H49.3652L50.1855 40.7598H51.5625C52.6367 40.877 53.7207 40.9697 54.8145 41.0381C55.9082 41.1064 56.9824 41.2383 58.0371 41.4336C58.0957 41.5117 58.1396 41.5947 58.1689 41.6826C58.1982 41.7705 58.2031 41.8633 58.1836 41.9609L58.0371 42.2539C57.9395 42.332 57.832 42.376 57.7148 42.3857C57.5977 42.3955 57.4805 42.4004 57.3633 42.4004ZM70.1367 47.5273L69.8438 47.3809C69.5508 45.9551 69.3701 44.5049 69.3018 43.0303C69.2334 41.5557 69.082 40.1055 68.8477 38.6797L68.7891 38.6504C68.7305 38.5723 68.6865 38.4893 68.6572 38.4014C68.6279 38.3135 68.623 38.2207 68.6426 38.123L68.7891 37.8301C68.8867 37.752 69.0039 37.7031 69.1406 37.6836C69.2773 37.6641 69.4043 37.6348 69.5215 37.5957H71.25C71.5039 37.6348 71.7676 37.6543 72.041 37.6543C72.3145 37.6543 72.5586 37.7324 72.7734 37.8887C72.832 37.9668 72.876 38.0498 72.9053 38.1377C72.9346 38.2256 72.9395 38.3184 72.9199 38.416L72.7734 38.709C72.6172 38.8848 72.4805 39.0801 72.3633 39.2949C72.2461 39.5098 72.1191 39.7246 71.9824 39.9395L71.9238 40.3203L73.623 41.1699C73.7402 41.3457 73.7988 41.5508 73.7988 41.7852C73.7988 42.0195 73.7988 42.2539 73.7988 42.4883C73.7012 42.8203 73.54 43.123 73.3154 43.3965C73.0908 43.6699 72.8613 43.9434 72.627 44.2168C72.3535 44.3926 72.0752 44.5635 71.792 44.7295C71.5088 44.8955 71.2012 44.9883 70.8691 45.0078L70.6348 44.8906L70.6055 45.125C70.6836 45.4375 70.7373 45.7549 70.7666 46.0771C70.7959 46.3994 70.8105 46.7363 70.8105 47.0879L70.6641 47.3809C70.5859 47.4395 70.5029 47.4834 70.415 47.5127C70.3271 47.542 70.2344 47.5469 70.1367 47.5273ZM63.1055 47.3516L62.8125 47.2051C62.7344 47.1074 62.6855 46.9951 62.666 46.8682C62.6465 46.7412 62.627 46.6094 62.6074 46.4727C62.627 45.8672 62.6807 45.2666 62.7686 44.6709C62.8564 44.0752 63.0273 43.5039 63.2812 42.957C63.3594 42.8984 63.4424 42.8545 63.5303 42.8252C63.6182 42.7959 63.7109 42.791 63.8086 42.8105L64.1016 42.957V43.0156C64.668 43.0352 65.2295 43.0449 65.7861 43.0449C66.3428 43.0449 66.875 43.1523 67.3828 43.3672C67.4414 43.4453 67.4854 43.5283 67.5146 43.6162C67.5439 43.7041 67.5488 43.7969 67.5293 43.8945C67.4512 44.207 67.4072 44.5342 67.3975 44.876C67.3877 45.2178 67.3828 45.5645 67.3828 45.916L67.4707 46.5605L67.3242 46.8535C67.2461 46.9121 67.1631 46.9561 67.0752 46.9854C66.9873 47.0146 66.8945 47.0195 66.7969 47L66.5039 46.9414C66.0156 46.9609 65.5322 46.9854 65.0537 47.0146C64.5752 47.0439 64.1016 47.0879 63.6328 47.1465V47.2051C63.5547 47.2637 63.4717 47.3076 63.3838 47.3369C63.2959 47.3662 63.2031 47.3711 63.1055 47.3516ZM66.2402 45.8281V44.8027L66.2988 44.2168L64.1016 44.1582C63.9844 44.4316 63.9062 44.7246 63.8672 45.0371C63.8281 45.3496 63.7988 45.6621 63.7793 45.9746H63.9258C64.3164 45.9355 64.7021 45.9014 65.083 45.8721C65.4639 45.8428 65.8496 45.8281 66.2402 45.8281ZM70.5762 44.0703V44.041C70.8105 43.9238 71.0498 43.8066 71.2939 43.6895C71.5381 43.5723 71.7676 43.416 71.9824 43.2207C72.1582 43.0254 72.3193 42.8301 72.4658 42.6348C72.6123 42.4395 72.6758 42.2051 72.6562 41.9316C72.3438 41.8145 72.041 41.6777 71.748 41.5215C71.4551 41.3652 71.1621 41.1992 70.8691 41.0234C70.8301 40.9648 70.7959 40.9014 70.7666 40.833C70.7373 40.7646 70.7129 40.6914 70.6934 40.6133C70.752 40.3008 70.8203 39.9883 70.8984 39.6758C70.9766 39.3633 71.123 39.0703 71.3379 38.7969C71.1426 38.7578 70.9424 38.7383 70.7373 38.7383C70.5322 38.7383 70.3223 38.7383 70.1074 38.7383V38.8555C70.2051 39.7344 70.2881 40.6084 70.3564 41.4775C70.4248 42.3467 70.4883 43.2207 70.5469 44.0996L70.5762 44.0703ZM62.0801 41.9902L61.7871 41.8438C61.7285 41.7656 61.6846 41.6826 61.6553 41.5947C61.626 41.5068 61.6211 41.4141 61.6406 41.3164L61.7871 41.0234C62.002 40.8867 62.2412 40.8086 62.5049 40.7891C62.7686 40.7695 63.0371 40.75 63.3105 40.7305V40.584L63.2812 40.5547L63.5156 38.4453H62.6074C62.5098 38.5039 62.4121 38.5479 62.3145 38.5771C62.2168 38.6064 62.1094 38.6113 61.9922 38.5918L61.6992 38.4453C61.6406 38.3672 61.5967 38.2842 61.5674 38.1963C61.5381 38.1084 61.5332 38.0156 61.5527 37.918L61.6992 37.625C61.8164 37.5469 61.9385 37.4785 62.0654 37.4199C62.1924 37.3613 62.3242 37.3223 62.4609 37.3027H63.7793L64.1602 37.2734V36.3359L64.1309 36.3066C64.1699 36.0918 64.1943 35.8672 64.2041 35.6328C64.2139 35.3984 64.2773 35.1836 64.3945 34.9883C64.4727 34.9297 64.5557 34.8857 64.6436 34.8564C64.7314 34.8271 64.8242 34.8223 64.9219 34.8418L65.2148 34.9883C65.293 35.0859 65.3369 35.1934 65.3467 35.3105C65.3564 35.4277 65.3613 35.5547 65.3613 35.6914L65.2734 36.3066L65.3027 37.2148H65.625L65.6543 37.1855H67.5293L67.8516 37.3613C67.9102 37.4395 67.9541 37.5225 67.9834 37.6104C68.0127 37.6982 68.0176 37.791 67.998 37.8887L67.8516 38.1816C67.6953 38.2988 67.5098 38.3525 67.2949 38.3428C67.0801 38.333 66.875 38.3281 66.6797 38.3281L66.5918 39.793L66.7383 40.584H66.9727L67.7051 40.5547C67.7832 40.5742 67.8613 40.5938 67.9395 40.6133C68.0176 40.6328 68.0859 40.6719 68.1445 40.7305C68.2031 40.8086 68.2471 40.8916 68.2764 40.9795C68.3057 41.0674 68.3105 41.1602 68.291 41.2578L68.1445 41.5508C67.8125 41.668 67.4512 41.7266 67.0605 41.7266C66.6699 41.7266 66.2891 41.7461 65.918 41.7852H64.1016C63.7695 41.8242 63.4326 41.8535 63.0908 41.873C62.749 41.8926 62.4121 41.9316 62.0801 41.9902ZM65.5957 40.6426V40.5254L65.4492 39.793L65.5078 38.3574H65.0391L64.6875 38.3867L64.4238 40.5547L64.4531 40.6426H65.5957ZM76.875 47.9375L76.582 47.791C76.5234 47.7129 76.4795 47.6299 76.4502 47.542C76.4209 47.4541 76.416 47.3613 76.4355 47.2637C76.8262 46.4824 77.1631 45.6768 77.4463 44.8467C77.7295 44.0166 77.9688 43.1719 78.1641 42.3125V40.9355C78.1055 40.1348 77.9883 39.3291 77.8125 38.5186C77.6367 37.708 77.2852 36.9805 76.7578 36.3359L76.4062 36.1309C76.3477 36.0527 76.3037 35.9697 76.2744 35.8818C76.2451 35.7939 76.2402 35.7012 76.2598 35.6035L76.4062 35.3105C76.4844 35.252 76.5723 35.208 76.6699 35.1787C76.7676 35.1494 76.875 35.1445 76.9922 35.1641L77.5488 35.4863C78.2129 36.2285 78.6523 37.083 78.8672 38.0498C79.082 39.0166 79.2285 39.9785 79.3066 40.9355V42.3125C79.1113 43.2695 78.8574 44.2168 78.5449 45.1543C78.2324 46.0918 77.832 46.9805 77.3438 47.8203C77.2852 47.8789 77.2168 47.9131 77.1387 47.9229C77.0605 47.9326 76.9727 47.9375 76.875 47.9375Z" fill="black"/>
</svg>
