<svg width="205" height="56" viewBox="0 0 205 56" fill="none" xmlns="http://www.w3.org/2000/svg">
<path d="M44.6719 18.375C43.4688 18.2812 42.2578 18.1484 41.0391 17.9766C39.8359 17.7891 38.7266 17.2969 37.7109 16.5C37.4609 16.1094 37.1875 15.7188 36.8906 15.3281C36.6094 14.9219 36.4688 14.4609 36.4688 13.9453L36.7031 13.3828C36.8594 13.2578 37.0234 13.1719 37.1953 13.125C37.3672 13.0625 37.5391 13.0469 37.7109 13.0781L38.2734 13.3828C38.4922 14.0234 38.8516 14.5312 39.3516 14.9062C39.8672 15.2656 40.4297 15.5469 41.0391 15.75C41.8516 15.8906 42.6875 16 43.5469 16.0781C44.4062 16.1562 45.2422 16.2969 46.0547 16.5C46.1797 16.6562 46.2656 16.8203 46.3125 16.9922C46.3594 17.1484 46.3672 17.3203 46.3359 17.5078L46.0547 18.0703C45.8828 18.2109 45.6719 18.2969 45.4219 18.3281C45.1875 18.3594 44.9375 18.375 44.6719 18.375ZM44.1562 8.78906L43.6172 8.50781C43.4922 8.35156 43.4062 8.19531 43.3594 8.03906C43.3125 7.86719 43.3047 7.6875 43.3359 7.5L43.6172 6.9375L45.1172 5.64844C43.8516 5.46094 42.5703 5.19531 41.2734 4.85156C39.9922 4.49219 38.8281 3.92969 37.7812 3.16406C37.6719 3.00781 37.5781 2.84375 37.5 2.67188C37.4219 2.5 37.4062 2.30469 37.4531 2.08594L37.7109 1.52344C37.8672 1.41406 38.0312 1.32812 38.2031 1.26562C38.375 1.1875 38.5547 1.1875 38.7422 1.26562L39.2812 1.52344L39.6094 1.89844C40.9688 2.49219 42.3672 2.92188 43.8047 3.1875C45.2422 3.45312 46.6484 3.73438 48.0234 4.03125C48.1328 4.1875 48.2188 4.35156 48.2812 4.52344C48.3594 4.69531 48.3594 4.89062 48.2812 5.10938C48.1562 5.51562 47.9297 5.89844 47.6016 6.25781C47.2891 6.60156 46.9453 6.94531 46.5703 7.28906C46.1953 7.58594 45.8281 7.91406 45.4688 8.27344C45.1094 8.61719 44.6719 8.78906 44.1562 8.78906ZM59.8359 15.375L59.3203 15.1172C59.2109 14.9453 59.1328 14.7656 59.0859 14.5781C59.0391 14.375 59.0156 14.1719 59.0156 13.9688C59.1875 12.2812 59.3984 10.6016 59.6484 8.92969C59.9141 7.24219 60.3047 5.60938 60.8203 4.03125C60.9609 3.92188 61.1016 3.84375 61.2422 3.79688C61.3984 3.73438 61.5625 3.72656 61.7344 3.77344L62.2734 4.03125C62.3672 4.17188 62.4375 4.32031 62.4844 4.47656C62.5469 4.61719 62.5625 4.79688 62.5312 5.01562C62.2188 6.10938 61.9766 7.21875 61.8047 8.34375C61.6328 9.46875 61.4609 10.6016 61.2891 11.7422L61.3359 11.7891C61.8828 11.5234 62.4531 11.2812 63.0469 11.0625C63.6562 10.8281 64.2891 10.6953 64.9453 10.6641C66.1953 10.6172 67.2734 11.0234 68.1797 11.8828C69.1016 12.7266 70.1484 13.1953 71.3203 13.2891C72.4297 13.2891 73.375 12.9297 74.1562 12.2109C74.9531 11.4766 75.75 10.7656 76.5469 10.0781L76.6875 9.82031C76.8281 9.72656 76.9766 9.65625 77.1328 9.60938C77.2891 9.54688 77.4531 9.53125 77.625 9.5625L78.1406 9.82031C78.25 9.96094 78.3281 10.1172 78.375 10.2891C78.4375 10.4609 78.4453 10.6484 78.3984 10.8516L78.1406 11.3906C77.0781 12.4219 75.9375 13.375 74.7188 14.25C73.5156 15.125 72.125 15.4766 70.5469 15.3047C69.4062 15.1797 68.4219 14.7109 67.5938 13.8984C66.7656 13.0859 65.7656 12.6797 64.5938 12.6797C63.625 12.8203 62.8047 13.2344 62.1328 13.9219C61.4609 14.6094 60.6953 15.0938 59.8359 15.375ZM89.8594 17.9297C89.5469 17.8672 89.25 17.7812 88.9688 17.6719C88.7031 17.5625 88.4531 17.4219 88.2188 17.25C88.0469 17 87.8984 16.7578 87.7734 16.5234C87.6641 16.2891 87.5781 16.0312 87.5156 15.75C87.4688 15.2812 87.5469 14.8516 87.75 14.4609C87.9688 14.0703 88.2109 13.6875 88.4766 13.3125C89.1172 12.7969 89.8125 12.4453 90.5625 12.2578C91.3125 12.0703 92.0938 11.9922 92.9062 12.0234V10.8047C92.875 10.4297 92.7812 10.0938 92.625 9.79688C92.4844 9.48438 92.3984 9.14062 92.3672 8.76562L92.6016 8.25C92.7422 8.15625 92.8984 8.08594 93.0703 8.03906C93.2422 7.97656 93.4297 7.96094 93.6328 7.99219L94.1484 8.25C94.4922 8.89062 94.7109 9.57031 94.8047 10.2891C94.9141 11.0078 94.9453 11.7422 94.8984 12.4922C95.5547 12.6953 96.1719 12.9922 96.75 13.3828C97.3281 13.7734 97.8516 14.2422 98.3203 14.7891C98.4609 14.9609 98.5781 15.1484 98.6719 15.3516C98.7812 15.5547 98.8203 15.7969 98.7891 16.0781L98.5312 16.5703C98.3906 16.6797 98.2422 16.7578 98.0859 16.8047C97.9453 16.8516 97.7891 16.8594 97.6172 16.8281L97.1016 16.5703C96.8359 16.1016 96.4844 15.7031 96.0469 15.375C95.625 15.0469 95.1953 14.7656 94.7578 14.5312H94.5938C94.5312 14.9375 94.3984 15.3047 94.1953 15.6328C93.9922 15.9609 93.7891 16.2891 93.5859 16.6172C93.0703 17.1016 92.5 17.4609 91.875 17.6953C91.25 17.9297 90.5781 18.0078 89.8594 17.9297ZM91.5 15.7031C91.7969 15.5312 92.0312 15.3047 92.2031 15.0234C92.375 14.7266 92.5469 14.4453 92.7188 14.1797V14.0156H92.2031C91.7656 14.0156 91.3594 14.0859 90.9844 14.2266C90.6094 14.3672 90.25 14.5547 89.9062 14.7891L89.5547 15.5625L89.7422 15.8203C89.9141 15.9141 90.0859 15.9609 90.2578 15.9609C90.4297 15.9609 90.6172 15.9609 90.8203 15.9609L91.5 15.7031ZM83.9297 13.5703L83.4141 13.3125C83.3203 13.2031 83.2578 13.0781 83.2266 12.9375C83.1953 12.7812 83.1562 12.6328 83.1094 12.4922C83.5938 11.4766 84.1406 10.4844 84.75 9.51562C85.3594 8.53125 85.8906 7.51562 86.3438 6.46875C85.7969 6.39062 85.2578 6.29688 84.7266 6.1875C84.1953 6.0625 83.6797 5.89844 83.1797 5.69531C83.0703 5.55469 82.9922 5.41406 82.9453 5.27344C82.8984 5.11719 82.8906 4.95312 82.9219 4.78125L83.1797 4.26562C83.3047 4.17188 83.4453 4.10156 83.6016 4.05469C83.7578 3.99219 83.9219 3.97656 84.0938 4.00781L87.2109 4.61719C87.2109 4.32031 87.2812 4.03906 87.4219 3.77344C87.5781 3.49219 87.7422 3.23438 87.9141 3C88.0547 2.89062 88.1953 2.8125 88.3359 2.76562C88.4922 2.70312 88.6562 2.69531 88.8281 2.74219L89.3438 3C89.4531 3.125 89.5312 3.26562 89.5781 3.42188C89.625 3.57812 89.6328 3.74219 89.6016 3.91406L89.1328 4.875C89.6172 4.98438 90.1016 5.04688 90.5859 5.0625C91.0859 5.07812 91.5547 5.1875 91.9922 5.39062C92.1016 5.53125 92.1797 5.67969 92.2266 5.83594C92.2734 5.97656 92.2812 6.13281 92.25 6.30469L91.9922 6.82031C91.8672 6.92969 91.7344 7 91.5938 7.03125C91.4531 7.0625 91.2969 7.09375 91.125 7.125L88.4766 6.77344C87.9297 7.89844 87.3438 9 86.7188 10.0781C86.0938 11.1406 85.4688 12.2188 84.8438 13.3125C84.7188 13.4062 84.5781 13.4844 84.4219 13.5469C84.2656 13.5938 84.1016 13.6016 83.9297 13.5703ZM99.4922 10.1484C99.2266 10.0391 98.9766 9.86719 98.7422 9.63281C98.5078 9.39844 98.2656 9.19531 98.0156 9.02344C97.5781 8.47656 97.0859 7.96094 96.5391 7.47656C95.9922 6.97656 95.6562 6.38281 95.5312 5.69531L95.7656 5.17969C95.9062 5.08594 96.0547 5.01562 96.2109 4.96875C96.3672 4.90625 96.5312 4.89062 96.7031 4.92188L97.1953 5.17969L99.3984 7.64062L100.477 8.55469C100.57 8.66406 100.625 8.78906 100.641 8.92969C100.672 9.05469 100.688 9.20312 100.688 9.375L100.43 9.89062C100.289 9.98438 100.141 10.0625 99.9844 10.125C99.8281 10.1719 99.6641 10.1797 99.4922 10.1484ZM53.6719 55.1641L53.1328 54.9297C52.8984 54.1484 52.7188 53.3672 52.5938 52.5859C52.4844 51.8047 52.3594 50.9922 52.2188 50.1484H52.0781C51.5312 50.4766 50.9609 50.7266 50.3672 50.8984C49.7891 51.0547 49.1797 51.1328 48.5391 51.1328C48.0859 51.0703 47.6484 51 47.2266 50.9219C46.8203 50.8281 46.4531 50.6562 46.125 50.4062C46 50.1719 45.9141 49.9219 45.8672 49.6562C45.8203 49.375 45.7656 49.1172 45.7031 48.8828C45.7656 48.4609 45.8672 48.0547 46.0078 47.6641C46.1641 47.2734 46.3672 46.9062 46.6172 46.5625C47.2734 46.0156 47.9844 45.5625 48.75 45.2031C49.5312 44.8438 50.3125 44.5547 51.0938 44.3359L51.1406 43.8438C51.0469 42.9844 50.9609 42.1172 50.8828 41.2422C50.8047 40.3672 50.7422 39.4844 50.6953 38.5938C50.0547 38.5312 49.375 38.4922 48.6562 38.4766C47.9531 38.4609 47.2969 38.3359 46.6875 38.1016C46.5781 37.9766 46.5 37.8438 46.4531 37.7031C46.4062 37.5469 46.3984 37.375 46.4297 37.1875L46.6875 36.6719C46.9375 36.5156 47.1953 36.4297 47.4609 36.4141C47.7266 36.3984 48.0156 36.3906 48.3281 36.3906L50.625 36.5312L50.6953 36.4844L50.4609 34.2812C50.4922 34.125 50.5391 33.9922 50.6016 33.8828C50.6641 33.7578 50.7344 33.6484 50.8125 33.5547C50.9375 33.4609 51.0703 33.3828 51.2109 33.3203C51.3672 33.2422 51.5312 33.2422 51.7031 33.3203L52.2188 33.5547C52.4219 34.0391 52.5312 34.5547 52.5469 35.1016C52.5781 35.6484 52.625 36.1719 52.6875 36.6719C54.4219 36.75 56.1641 36.8047 57.9141 36.8359C59.6797 36.8672 61.3984 37.0938 63.0703 37.5156C63.1641 37.6406 63.2422 37.7812 63.3047 37.9375C63.3828 38.0938 63.3828 38.2656 63.3047 38.4531L63.0703 38.9453C62.9453 39.0391 62.8047 39.1094 62.6484 39.1562C62.5078 39.2031 62.3203 39.2109 62.0859 39.1797C60.5703 39.0234 59.0234 38.9219 57.4453 38.875C55.8828 38.8281 54.3125 38.7656 52.7344 38.6875V39.8828L53.0859 43.7266H53.5781C54.0625 43.6641 54.5625 43.6094 55.0781 43.5625C55.6094 43.5156 56.1406 43.5078 56.6719 43.5391L56.7188 43.5859L57.3984 42.7422C57.5391 42.6484 57.6797 42.5781 57.8203 42.5312C57.9766 42.4844 58.1328 42.4766 58.2891 42.5078L58.8281 42.7422C58.9375 42.8828 59.0156 43.0391 59.0625 43.2109C59.1094 43.3672 59.1172 43.5234 59.0859 43.6797L59.0391 43.9375C59.4922 44 59.8984 44.1406 60.2578 44.3594C60.6328 44.5625 61.0078 44.7812 61.3828 45.0156L62.0391 45.6953C62.4297 46.1797 62.7266 46.6953 62.9297 47.2422C63.1484 47.7891 63.2422 48.3672 63.2109 48.9766C63.1484 49.6016 63.0781 50.2266 63 50.8516C62.9219 51.4609 62.7109 52.0078 62.3672 52.4922C62.2266 52.5859 62.0781 52.6562 61.9219 52.7031C61.7656 52.7656 61.6094 52.7734 61.4531 52.7266L60.9375 52.4922C60.8281 52.3672 60.7344 52.2344 60.6562 52.0938C60.5938 51.9531 60.5859 51.7734 60.6328 51.5547C60.8984 51.1172 61.0547 50.625 61.1016 50.0781C61.1641 49.5156 61.2109 48.9688 61.2422 48.4375C61.1641 48.0781 61.0234 47.75 60.8203 47.4531C60.6172 47.1406 60.3594 46.8438 60.0469 46.5625C59.7188 46.3125 59.3516 46.125 58.9453 46C58.5547 45.875 58.1562 45.7578 57.75 45.6484C57.2656 46.3672 56.7266 47.0234 56.1328 47.6172C55.5391 48.1953 54.8672 48.6797 54.1172 49.0703H54.0234V49.375C54.1797 50.2188 54.3438 51.0469 54.5156 51.8594C54.7031 52.6719 54.8125 53.5312 54.8438 54.4375L54.6094 54.9297C54.4375 55.0234 54.2734 55.1016 54.1172 55.1641C53.9766 55.2422 53.8281 55.2422 53.6719 55.1641ZM51.7734 48.0625L51.8203 47.9688L51.4922 46.3281H51.3984C50.8047 46.5469 50.2188 46.7734 49.6406 47.0078C49.0781 47.2422 48.5547 47.5781 48.0703 48.0156C47.9766 48.1406 47.8906 48.2891 47.8125 48.4609C47.75 48.6328 47.7188 48.8047 47.7188 48.9766L49.1953 49.1172C49.6484 49.0234 50.0859 48.8828 50.5078 48.6953C50.9297 48.4922 51.3516 48.2812 51.7734 48.0625ZM53.7656 46.9844C54.0312 46.7656 54.2969 46.5547 54.5625 46.3516C54.8438 46.1484 55.0859 45.8984 55.2891 45.6016L55.1484 45.5547L53.3906 45.7422V45.8594L53.625 47.0312H53.7188L53.7656 46.9844ZM80.7891 54.0391L80.2969 53.8047C80.1562 53.6328 80.0703 53.4375 80.0391 53.2188C80.0078 53.0156 79.9922 52.7969 79.9922 52.5625L80.0859 51.0625V47.7109L80.3438 43.0703V39.2266L80.3906 39.1797V36.7656C80.5156 36.4062 80.5859 36.0234 80.6016 35.6172C80.6172 35.1953 80.7266 34.8203 80.9297 34.4922C81.0547 34.3984 81.1875 34.3281 81.3281 34.2812C81.4844 34.2188 81.6484 34.2109 81.8203 34.2578L82.3125 34.4922C82.4844 34.6953 82.5703 34.9141 82.5703 35.1484C82.5703 35.3672 82.5703 35.6094 82.5703 35.875L82.3125 36.8594V39.1797L82.2656 39.2266V43.0703L82.0078 47.7109V51.0625C81.9766 51.5312 81.9609 52.0078 81.9609 52.4922C81.9609 52.9766 81.8672 53.4141 81.6797 53.8047C81.5391 53.8984 81.3906 53.9688 81.2344 54.0156C81.0938 54.0781 80.9453 54.0859 80.7891 54.0391ZM71.2969 45.8359L70.6641 45.4375C70.3359 44.9844 70.1484 44.4531 70.1016 43.8438C70.0547 43.2344 70.0312 42.6328 70.0312 42.0391C70.0312 40.9922 70.1094 39.9688 70.2656 38.9688C70.4375 37.9531 70.75 36.9688 71.2031 36.0156C71.3281 35.9219 71.4609 35.8516 71.6016 35.8047C71.7578 35.7578 71.9219 35.75 72.0938 35.7812L72.5859 36.0156C72.6797 36.1562 72.75 36.3047 72.7969 36.4609C72.8594 36.6016 72.875 36.7656 72.8438 36.9531C72.5 37.75 72.2656 38.5781 72.1406 39.4375C72.0156 40.2812 71.9531 41.1484 71.9531 42.0391L72 43.7734H72.2344C73.125 43.5703 73.9922 43.2656 74.8359 42.8594C75.6797 42.4375 76.5391 42.1172 77.4141 41.8984L77.9297 42.1328C78.0234 42.2734 78.0938 42.4219 78.1406 42.5781C78.1875 42.7188 78.1953 42.8672 78.1641 43.0234L77.9297 43.5156C76.8672 44.1094 75.7812 44.6172 74.6719 45.0391C73.5781 45.4453 72.4531 45.7109 71.2969 45.8359ZM97.5469 53.7344C97.2812 53.6406 97 53.5469 96.7031 53.4531C96.4062 53.3594 96.1172 53.2422 95.8359 53.1016C95.4922 52.6641 95.2422 52.2031 95.0859 51.7188C94.9297 51.2344 94.8672 50.7109 94.8984 50.1484C94.9609 49.5547 95.1406 49 95.4375 48.4844C95.7344 47.9688 96.1172 47.4922 96.5859 47.0547C97.3984 46.6172 98.2656 46.3047 99.1875 46.1172C100.109 45.9297 101.047 45.8672 102 45.9297L102.727 46.0703C102.836 45.8516 102.906 45.6094 102.938 45.3438C102.969 45.0781 102.984 44.8047 102.984 44.5234C102.156 44.4297 101.305 44.3672 100.43 44.3359C99.5547 44.3047 98.7109 44.1641 97.8984 43.9141C97.8047 43.7891 97.7344 43.6484 97.6875 43.4922C97.6406 43.3359 97.6328 43.1641 97.6641 42.9766L97.8984 42.4609C98.0859 42.3047 98.2812 42.2188 98.4844 42.2031C98.6875 42.1875 98.9141 42.1797 99.1641 42.1797L102.891 42.5078V42.2266C102.812 41.7266 102.727 41.2266 102.633 40.7266C102.555 40.2266 102.43 39.7578 102.258 39.3203C101.133 39.1016 99.9844 38.9062 98.8125 38.7344C97.6562 38.5625 96.5547 38.2266 95.5078 37.7266C95.4141 37.6016 95.3359 37.4609 95.2734 37.3047C95.2109 37.1484 95.1953 36.9766 95.2266 36.7891L95.5078 36.2734C95.6328 36.1797 95.7734 36.1016 95.9297 36.0391C96.1016 35.9766 96.2891 35.9609 96.4922 35.9922C97.3047 36.3047 98.1328 36.5312 98.9766 36.6719C99.8359 36.8125 100.703 36.9609 101.578 37.1172V36.9297C101.469 36.7422 101.391 36.5312 101.344 36.2969C101.297 36.0625 101.273 35.8203 101.273 35.5703L101.531 35.0547C101.672 34.9609 101.82 34.8828 101.977 34.8203C102.133 34.7578 102.297 34.7578 102.469 34.8203L102.984 35.0547C103.203 35.4297 103.383 35.8359 103.523 36.2734C103.664 36.7109 103.82 37.1484 103.992 37.5859C104.789 37.7422 105.602 37.8984 106.43 38.0547C107.273 38.2109 108.078 38.4609 108.844 38.8047C108.938 38.9297 109.016 39.0703 109.078 39.2266C109.141 39.3828 109.156 39.5547 109.125 39.7422L108.844 40.2578C108.719 40.3516 108.578 40.4297 108.422 40.4922C108.266 40.5547 108.078 40.5547 107.859 40.4922L104.555 39.7422L104.508 39.8359C104.648 40.2422 104.742 40.6797 104.789 41.1484C104.836 41.6172 104.883 42.0859 104.93 42.5547H107.438C107.609 42.5859 107.766 42.6172 107.906 42.6484C108.047 42.6797 108.188 42.7578 108.328 42.8828C108.422 43.0078 108.5 43.1484 108.562 43.3047C108.625 43.4609 108.633 43.6328 108.586 43.8203L108.328 44.3359C108.234 44.4297 108.102 44.5 107.93 44.5469C107.773 44.5938 107.625 44.6328 107.484 44.6641L107.438 44.6172H105.023C105.07 44.9609 105.047 45.2969 104.953 45.625C104.859 45.9531 104.797 46.2734 104.766 46.5859C105.531 46.8047 106.25 47.125 106.922 47.5469C107.609 47.9688 108.234 48.4766 108.797 49.0703C108.984 49.2578 109.148 49.4766 109.289 49.7266C109.43 49.9766 109.453 50.2578 109.359 50.5703L109.125 51.0859C108.969 51.2109 108.812 51.2969 108.656 51.3438C108.5 51.3906 108.344 51.3984 108.188 51.3672L107.648 51.0859C107.539 50.9297 107.438 50.75 107.344 50.5469C107.266 50.3438 107.125 50.1797 106.922 50.0547C106.5 49.7422 106.07 49.4531 105.633 49.1875C105.195 48.9219 104.734 48.7266 104.25 48.6016C103.969 49.3828 103.578 50.125 103.078 50.8281C102.594 51.5312 102.055 52.1797 101.461 52.7734C100.914 53.1641 100.305 53.4453 99.6328 53.6172C98.9766 53.8047 98.2812 53.8438 97.5469 53.7344ZM100.148 51.1328C100.648 50.6953 101.07 50.2188 101.414 49.7031C101.758 49.1875 102.023 48.6328 102.211 48.0391C102.023 47.9766 101.82 47.9453 101.602 47.9453C101.383 47.9453 101.164 47.9453 100.945 47.9453C100.32 47.9453 99.7188 48.0312 99.1406 48.2031C98.5625 48.375 98.0312 48.6641 97.5469 49.0703C97.2812 49.2891 97.1094 49.5859 97.0312 49.9609C96.9531 50.3359 96.9297 50.7109 96.9609 51.0859L97.1953 51.5078C97.4766 51.6016 97.7734 51.6641 98.0859 51.6953C98.3984 51.7266 98.7266 51.7422 99.0703 51.7422L100.148 51.1328ZM127.711 53.0078C127.055 52.9453 126.414 52.8125 125.789 52.6094C125.18 52.4219 124.609 52.1641 124.078 51.8359C122.875 50.7266 122.008 49.3984 121.477 47.8516C120.961 46.3047 120.664 44.7344 120.586 43.1406L120.773 41.8516C120.617 41.8516 120.477 41.8203 120.352 41.7578C120.227 41.6953 120.109 41.6328 120 41.5703C119.891 41.4297 119.812 41.2812 119.766 41.125C119.719 40.9531 119.711 40.7734 119.742 40.5859L120 40.0469C120.156 39.9531 120.312 39.875 120.469 39.8125C120.625 39.75 120.812 39.7344 121.031 39.7656C121.219 39.1562 121.391 38.5469 121.547 37.9375C121.703 37.3281 122 36.7656 122.438 36.25C122.594 36.1406 122.75 36.0547 122.906 35.9922C123.078 35.9297 123.242 35.9297 123.398 35.9922L123.961 36.25C124.07 36.4062 124.148 36.5703 124.195 36.7422C124.258 36.8984 124.273 37.0547 124.242 37.2109C123.945 37.6484 123.719 38.1016 123.562 38.5703C123.422 39.0391 123.289 39.5156 123.164 40C124.242 40.1094 125.328 40.2109 126.422 40.3047C127.531 40.3984 128.625 40.4766 129.703 40.5391V39.625C129.703 39.1875 129.68 38.7734 129.633 38.3828C129.586 37.9766 129.539 37.5703 129.492 37.1641L129.75 36.625C129.906 36.5312 130.062 36.4531 130.219 36.3906C130.391 36.3281 130.562 36.3125 130.734 36.3438L131.297 36.625C131.625 37.2188 131.789 37.875 131.789 38.5938C131.789 39.3125 131.805 40.0156 131.836 40.7031C132.227 40.7656 132.641 40.8125 133.078 40.8438C133.516 40.8594 133.914 40.9766 134.273 41.1953C134.383 41.3359 134.469 41.4922 134.531 41.6641C134.594 41.8203 134.594 41.9844 134.531 42.1562L134.273 42.6953C134.164 42.8203 134.023 42.8984 133.852 42.9297C133.695 42.9609 133.547 43 133.406 43.0469L131.883 42.8359V42.9297L132 46.1172L131.742 46.6562C131.586 46.7812 131.422 46.875 131.25 46.9375C131.094 46.9844 130.922 46.9844 130.734 46.9375L130.195 46.6562C129.961 46.0938 129.852 45.4609 129.867 44.7578C129.883 44.0391 129.844 43.3359 129.75 42.6484L122.812 42.1562L122.719 43.1406C122.781 44.4062 123.023 45.6562 123.445 46.8906C123.867 48.125 124.523 49.2188 125.414 50.1719C125.789 50.2969 126.156 50.4453 126.516 50.6172C126.875 50.7734 127.273 50.8672 127.711 50.8984H129.984C130.25 50.8672 130.5 50.8047 130.734 50.7109C130.984 50.6172 131.258 50.5703 131.555 50.5703L132.094 50.8516C132.219 50.9922 132.305 51.1484 132.352 51.3203C132.398 51.4766 132.406 51.6641 132.375 51.8828L132.094 52.4219C131.766 52.6094 131.422 52.7266 131.062 52.7734C130.703 52.8203 130.344 52.8984 129.984 53.0078H127.711ZM143.836 49.375L143.32 49.1172C143.211 48.9453 143.133 48.7656 143.086 48.5781C143.039 48.375 143.016 48.1719 143.016 47.9688C143.188 46.2812 143.398 44.6016 143.648 42.9297C143.914 41.2422 144.305 39.6094 144.82 38.0312C144.961 37.9219 145.102 37.8438 145.242 37.7969C145.398 37.7344 145.562 37.7266 145.734 37.7734L146.273 38.0312C146.367 38.1719 146.438 38.3203 146.484 38.4766C146.547 38.6172 146.562 38.7969 146.531 39.0156C146.219 40.1094 145.977 41.2188 145.805 42.3438C145.633 43.4688 145.461 44.6016 145.289 45.7422L145.336 45.7891C145.883 45.5234 146.453 45.2812 147.047 45.0625C147.656 44.8281 148.289 44.6953 148.945 44.6641C150.195 44.6172 151.273 45.0234 152.18 45.8828C153.102 46.7266 154.148 47.1953 155.32 47.2891C156.43 47.2891 157.375 46.9297 158.156 46.2109C158.953 45.4766 159.75 44.7656 160.547 44.0781L160.688 43.8203C160.828 43.7266 160.977 43.6562 161.133 43.6094C161.289 43.5469 161.453 43.5312 161.625 43.5625L162.141 43.8203C162.25 43.9609 162.328 44.1172 162.375 44.2891C162.438 44.4609 162.445 44.6484 162.398 44.8516L162.141 45.3906C161.078 46.4219 159.938 47.375 158.719 48.25C157.516 49.125 156.125 49.4766 154.547 49.3047C153.406 49.1797 152.422 48.7109 151.594 47.8984C150.766 47.0859 149.766 46.6797 148.594 46.6797C147.625 46.8203 146.805 47.2344 146.133 47.9219C145.461 48.6094 144.695 49.0938 143.836 49.375ZM172.453 51.8125C172.297 51.7812 172.156 51.7422 172.031 51.6953C171.906 51.6484 171.789 51.5859 171.68 51.5078C171.555 51.3516 171.469 51.1953 171.422 51.0391C171.375 50.8672 171.367 50.6875 171.398 50.5L171.68 49.9609C172.273 49.7266 172.867 49.4844 173.461 49.2344C174.07 48.9844 174.602 48.5703 175.055 47.9922C175.305 47.6953 175.477 47.3516 175.57 46.9609C175.664 46.5703 175.742 46.1953 175.805 45.8359C175.711 45.2109 175.547 44.625 175.312 44.0781C175.094 43.5156 174.75 43.0078 174.281 42.5547L172.945 42.0625C172.242 43.2031 171.531 44.3594 170.812 45.5312C170.094 46.6875 169.352 47.8203 168.586 48.9297C168.43 49.0234 168.266 49.1016 168.094 49.1641C167.938 49.2266 167.773 49.2344 167.602 49.1875L167.039 48.9297C166.93 48.7734 166.852 48.6172 166.805 48.4609C166.758 48.2891 166.75 48.0859 166.781 47.8516C167.406 46.8984 168.023 45.9375 168.633 44.9688C169.258 43.9844 169.852 42.9844 170.414 41.9688H170.18C169.773 42 169.391 42.0938 169.031 42.25C168.672 42.3906 168.281 42.4766 167.859 42.5078L167.32 42.2266C167.211 42.0859 167.125 41.9375 167.062 41.7812C167.016 41.6094 167.008 41.4297 167.039 41.2422L167.32 40.7031C167.977 40.2812 168.703 40.0312 169.5 39.9531C170.297 39.8594 171.078 39.7812 171.844 39.7188L173.227 37.7031C173.367 37.6094 173.523 37.5312 173.695 37.4688C173.867 37.4062 174.047 37.3906 174.234 37.4219L174.773 37.7031C174.883 37.8594 174.961 38.0234 175.008 38.1953C175.07 38.3516 175.086 38.5156 175.055 38.6875L174.094 40.1406C174.359 40.25 174.625 40.3516 174.891 40.4453C175.172 40.5391 175.43 40.6719 175.664 40.8438L176.648 41.8516C177.102 42.5547 177.422 43.2812 177.609 44.0312C177.812 44.7812 177.93 45.5625 177.961 46.375C177.867 47.25 177.578 48.0469 177.094 48.7656C176.625 49.4844 176.031 50.1406 175.312 50.7344C174.891 51.0312 174.438 51.2734 173.953 51.4609C173.469 51.6328 172.969 51.75 172.453 51.8125ZM185.156 47.0312L184.594 46.7734C183.938 45.3984 183.164 44.1094 182.273 42.9062C181.398 41.6875 180.484 40.4922 179.531 39.3203L178.805 38.9219C178.695 38.7656 178.609 38.6094 178.547 38.4531C178.484 38.2812 178.477 38.1094 178.523 37.9375L178.805 37.375C178.961 37.2656 179.117 37.1797 179.273 37.1172C179.445 37.0547 179.641 37.0547 179.859 37.1172L180.891 37.6094C181.922 38.9531 182.961 40.3203 184.008 41.7109C185.07 43.0859 185.883 44.5859 186.445 46.2109L186.141 46.7734C185.984 46.8672 185.82 46.9453 185.648 47.0078C185.492 47.0703 185.328 47.0781 185.156 47.0312ZM198.469 52.2344L197.812 51.8125C197.688 51.6875 197.594 51.5312 197.531 51.3438C197.469 51.1562 197.453 50.9688 197.484 50.7812L197.953 49.9844C198.141 49.8281 198.352 49.7266 198.586 49.6797C198.82 49.6328 199.062 49.6094 199.312 49.6094L199.969 49.9375C200.094 50.0625 200.172 50.2109 200.203 50.3828C200.234 50.5547 200.234 50.7344 200.203 50.9219C200.172 51.1094 200.109 51.2812 200.016 51.4375C199.922 51.5938 199.812 51.75 199.688 51.9062C199.5 52.0312 199.305 52.1172 199.102 52.1641C198.898 52.2109 198.688 52.2344 198.469 52.2344ZM198.328 49.1875L197.859 48.9531C197.766 48.8281 197.695 48.6953 197.648 48.5547C197.602 48.4141 197.594 48.25 197.625 48.0625C197.969 46.4375 198.711 45.0312 199.852 43.8438C200.992 42.6562 201.844 41.3438 202.406 39.9062C202.312 39.5938 202.203 39.2891 202.078 38.9922C201.953 38.6953 201.75 38.4375 201.469 38.2188C201.031 38.0312 200.57 37.8672 200.086 37.7266C199.602 37.5859 199.094 37.5469 198.562 37.6094C197.719 37.6719 196.906 37.875 196.125 38.2188C195.344 38.5625 194.672 39.0938 194.109 39.8125L193.781 40.375C193.844 40.4688 193.883 40.5703 193.898 40.6797C193.914 40.7891 193.922 40.9062 193.922 41.0312L193.688 41.5C193.562 41.5938 193.43 41.6641 193.289 41.7109C193.148 41.7578 193 41.7656 192.844 41.7344L192.375 41.5C192.219 41.3125 192.078 41.125 191.953 40.9375C191.828 40.75 191.781 40.5156 191.812 40.2344C192.031 39.7031 192.328 39.2031 192.703 38.7344C193.078 38.2656 193.484 37.8125 193.922 37.375C194.766 36.7812 195.672 36.3516 196.641 36.0859C197.609 35.8203 198.609 35.7188 199.641 35.7812C200.172 35.875 200.688 36 201.188 36.1562C201.688 36.3125 202.172 36.5156 202.641 36.7656L203.391 37.5156C203.641 37.9219 203.836 38.3516 203.977 38.8047C204.117 39.2578 204.203 39.7344 204.234 40.2344C204.203 40.7344 204.094 41.1953 203.906 41.6172C203.719 42.0391 203.484 42.4531 203.203 42.8594C202.672 43.3594 202.164 43.8828 201.68 44.4297C201.195 44.9766 200.75 45.5469 200.344 46.1406C200.125 46.6094 199.938 47.0859 199.781 47.5703C199.625 48.0547 199.422 48.5156 199.172 48.9531C199.047 49.0469 198.914 49.1172 198.773 49.1641C198.633 49.2109 198.484 49.2188 198.328 49.1875Z" fill="#333333"/>
<path d="M124.406 20.0625C124.281 20.0312 124.164 19.9922 124.055 19.9453C123.945 19.8984 123.844 19.8438 123.75 19.7812C123.625 19.625 123.547 19.4531 123.516 19.2656C123.484 19.0781 123.453 18.8906 123.422 18.7031H123.188L121.969 18.8438H115.078C114.641 18.875 114.219 18.9219 113.812 18.9844C113.406 19.0469 113 19.1094 112.594 19.1719C112.469 19.1406 112.352 19.1016 112.242 19.0547C112.133 19.0078 112.031 18.9531 111.938 18.8906C111.875 18.7969 111.82 18.6953 111.773 18.5859C111.727 18.4766 111.688 18.3594 111.656 18.2344C111.719 16.9531 111.898 15.6797 112.195 14.4141C112.492 13.1484 112.875 11.9219 113.344 10.7344C113.469 10.6406 113.602 10.5703 113.742 10.5234C113.883 10.4766 114.031 10.4688 114.188 10.5L114.656 10.7344C114.75 10.8594 114.82 10.9922 114.867 11.1328C114.914 11.2734 114.922 11.4375 114.891 11.625C114.547 12.5 114.281 13.4062 114.094 14.3438C113.906 15.2812 113.719 16.2188 113.531 17.1562H113.766L115.078 17.0156H121.969L123.188 16.9219V16.7344L122.625 11.9062C122.688 11.625 122.719 11.3281 122.719 11.0156C122.719 10.7031 122.812 10.4219 123 10.1719C123.125 10.0781 123.258 10.0078 123.398 9.96094C123.539 9.91406 123.688 9.90625 123.844 9.9375L124.312 10.1719C124.438 10.3281 124.508 10.5078 124.523 10.7109C124.539 10.9141 124.547 11.125 124.547 11.3438L124.453 11.9062C124.609 13.125 124.742 14.3594 124.852 15.6094C124.961 16.8594 125.125 18.0938 125.344 19.3125L125.109 19.7812C125.016 19.875 124.906 19.9375 124.781 19.9688C124.656 20 124.531 20.0312 124.406 20.0625ZM107.391 19.3125L106.922 19.0781C106.859 18.9844 106.805 18.8828 106.758 18.7734C106.711 18.6641 106.672 18.5469 106.641 18.4219V16.0312L106.922 7.73438L106.875 7.6875C106.312 8.15625 105.867 8.73438 105.539 9.42188C105.211 10.1094 104.859 10.7812 104.484 11.4375C104.453 11.625 104.422 11.8125 104.391 12C104.359 12.1875 104.281 12.3594 104.156 12.5156C104.031 12.6094 103.898 12.6797 103.758 12.7266C103.617 12.7734 103.469 12.7812 103.312 12.75L102.844 12.5156C102.719 12.3281 102.664 12.1016 102.68 11.8359C102.695 11.5703 102.703 11.3125 102.703 11.0625C103.016 10.2812 103.383 9.52344 103.805 8.78906C104.227 8.05469 104.672 7.32812 105.141 6.60938C105.328 6.45312 105.531 6.32812 105.75 6.23438C105.969 6.14062 106.203 6.10938 106.453 6.14062L106.969 6.375C107 5.34375 107.062 4.3125 107.156 3.28125C107.25 2.25 107.422 1.25 107.672 0.28125C107.797 0.1875 107.93 0.117188 108.07 0.0703125C108.211 0.0234375 108.359 0.015625 108.516 0.046875L108.984 0.28125C109.109 0.4375 109.18 0.609375 109.195 0.796875C109.211 0.984375 109.219 1.17188 109.219 1.35938C109.094 2.20312 109 3.05469 108.938 3.91406C108.875 4.77344 108.828 5.64062 108.797 6.51562H108.984L109.406 6.46875L109.875 6.70312C110.125 7.54688 110.484 8.34375 110.953 9.09375C111.422 9.84375 111.844 10.5938 112.219 11.3438L111.984 11.8125C111.859 11.9062 111.727 11.9766 111.586 12.0234C111.445 12.0703 111.297 12.0781 111.141 12.0469L110.672 11.8125C110.266 11.3438 109.891 10.8672 109.547 10.3828C109.203 9.89844 108.938 9.375 108.75 8.8125L108.469 16.0312V18.6094L108.234 19.0781C108.109 19.1719 107.977 19.2422 107.836 19.2891C107.695 19.3359 107.547 19.3438 107.391 19.3125ZM114.984 15.9844L114.516 15.75C114.422 15.625 114.352 15.4922 114.305 15.3516C114.258 15.2109 114.25 15.0469 114.281 14.8594C114.562 14.3594 114.883 13.8906 115.242 13.4531C115.602 13.0156 115.969 12.5781 116.344 12.1406C116.031 11.7031 115.719 11.2656 115.406 10.8281C115.094 10.3906 114.891 9.90625 114.797 9.375L115.031 8.90625C115.156 8.8125 115.289 8.74219 115.43 8.69531C115.57 8.64844 115.719 8.64062 115.875 8.67188L116.344 8.90625L117.609 10.7344L119.531 8.71875C119.719 8.59375 119.914 8.48438 120.117 8.39062C120.32 8.29688 120.547 8.26562 120.797 8.29688L121.266 8.53125C121.359 8.65625 121.43 8.78906 121.477 8.92969C121.523 9.07031 121.531 9.21875 121.5 9.375L121.266 9.84375C120.797 10.125 120.352 10.4922 119.93 10.9453C119.508 11.3984 119.109 11.8438 118.734 12.2812L118.875 12.5156L120.75 14.2031C120.844 14.2969 120.898 14.4062 120.914 14.5312C120.93 14.6562 120.938 14.7969 120.938 14.9531L120.703 15.4219C120.578 15.5156 120.445 15.5859 120.305 15.6328C120.164 15.6797 120.016 15.6875 119.859 15.6562C119.453 15.4375 119.07 15.1484 118.711 14.7891C118.352 14.4297 117.984 14.0938 117.609 13.7812L117.469 13.6406C117.156 13.9844 116.859 14.3281 116.578 14.6719C116.297 15.0156 116.047 15.375 115.828 15.75C115.703 15.8438 115.57 15.9141 115.43 15.9609C115.289 16.0078 115.141 16.0156 114.984 15.9844ZM114.469 6.89062L114 6.65625C113.625 6.0625 113.398 5.42188 113.32 4.73438C113.242 4.04688 113.172 3.35938 113.109 2.67188C113.141 2.54688 113.18 2.42969 113.227 2.32031C113.273 2.21094 113.328 2.10938 113.391 2.01562C113.516 1.92188 113.648 1.85156 113.789 1.80469C113.93 1.75781 114.078 1.75 114.234 1.78125L114.703 2.01562C114.922 2.67188 115.062 3.35938 115.125 4.07812C115.188 4.79688 115.328 5.5 115.547 6.1875L115.312 6.65625C115.188 6.75 115.055 6.82031 114.914 6.86719C114.773 6.91406 114.625 6.92188 114.469 6.89062ZM117.609 6.75L117.141 6.51562C116.859 6.04688 116.711 5.53906 116.695 4.99219C116.68 4.44531 116.656 3.90625 116.625 3.375C116.656 3.15625 116.688 2.9375 116.719 2.71875C116.75 2.5 116.828 2.3125 116.953 2.15625C117.078 2.0625 117.211 1.99219 117.352 1.94531C117.492 1.89844 117.641 1.89062 117.797 1.92188L118.266 2.15625C118.391 2.3125 118.461 2.49219 118.477 2.69531C118.492 2.89844 118.5 3.10938 118.5 3.32812L118.453 3.375C118.453 3.8125 118.469 4.25781 118.5 4.71094C118.531 5.16406 118.594 5.60938 118.688 6.04688L118.453 6.51562C118.328 6.60938 118.195 6.67969 118.055 6.72656C117.914 6.77344 117.766 6.78125 117.609 6.75ZM121.359 6.375L120.891 6.14062C120.797 6.01562 120.727 5.88281 120.68 5.74219C120.633 5.60156 120.625 5.4375 120.656 5.25C120.875 4.71875 121.133 4.19531 121.43 3.67969C121.727 3.16406 122.047 2.65625 122.391 2.15625C122.578 2.03125 122.766 1.92188 122.953 1.82812C123.141 1.73438 123.359 1.70312 123.609 1.73438L124.078 1.96875C124.172 2.09375 124.242 2.22656 124.289 2.36719C124.336 2.50781 124.344 2.65625 124.312 2.8125L124.078 3.28125C123.609 3.625 123.25 4.0625 123 4.59375C122.75 5.125 122.484 5.64062 122.203 6.14062C122.078 6.23438 121.945 6.30469 121.805 6.35156C121.664 6.39844 121.516 6.40625 121.359 6.375ZM143.18 18.4922L142.688 18.2812C142.594 18.1406 142.516 18 142.453 17.8594C142.406 17.7031 142.406 17.5312 142.453 17.3438C142.641 16.4375 142.773 15.5234 142.852 14.6016C142.945 13.6797 143.008 12.7422 143.039 11.7891L141.211 11.6719C140.914 12.375 140.578 13.0391 140.203 13.6641C139.844 14.2891 139.383 14.8672 138.82 15.3984C137.961 16.0234 137.07 16.5859 136.148 17.0859C135.227 17.5859 134.234 17.8516 133.172 17.8828C132.672 17.8203 132.203 17.6875 131.766 17.4844C131.344 17.2812 130.953 16.9844 130.594 16.5938C130.438 16.3281 130.297 16.0625 130.172 15.7969C130.062 15.5312 129.977 15.25 129.914 14.9531C129.836 14.3906 129.945 13.9141 130.242 13.5234C130.539 13.1172 130.859 12.7188 131.203 12.3281C132.453 11.4375 133.805 10.8047 135.258 10.4297C136.711 10.0391 138.18 9.82812 139.664 9.79688V7.96875C139.539 7.4375 139.352 6.94531 139.102 6.49219C138.852 6.02344 138.477 5.60156 137.977 5.22656C137.383 4.83594 136.758 4.57812 136.102 4.45312C135.445 4.3125 134.75 4.25781 134.016 4.28906C133.188 4.38281 132.391 4.5625 131.625 4.82812C130.875 5.09375 130.117 5.375 129.352 5.67188L128.859 5.4375C128.766 5.29688 128.695 5.15625 128.648 5.01562C128.602 4.85938 128.594 4.70312 128.625 4.54688L128.859 4.05469C129.75 3.38281 130.734 2.95312 131.812 2.76562C132.891 2.5625 133.953 2.42969 135 2.36719C135.766 2.32031 136.492 2.42969 137.18 2.69531C137.883 2.96094 138.562 3.29688 139.219 3.70312C140.141 4.42188 140.797 5.32031 141.188 6.39844C141.594 7.47656 141.734 8.59375 141.609 9.75L143.133 9.84375V7.80469L143.039 6.91406C143.07 6.78906 143.109 6.67188 143.156 6.5625C143.203 6.4375 143.266 6.32812 143.344 6.23438C143.469 6.125 143.602 6.04688 143.742 6C143.898 5.95312 144.062 5.94531 144.234 5.97656L144.727 6.23438C144.883 6.45312 144.961 6.70312 144.961 6.98438C144.961 7.26562 145 7.53906 145.078 7.80469V10.0547C145.469 10.1797 145.859 10.3125 146.25 10.4531C146.656 10.5781 147.023 10.7578 147.352 10.9922C147.445 11.1172 147.516 11.2578 147.562 11.4141C147.625 11.5547 147.633 11.7109 147.586 11.8828L147.352 12.375C147.211 12.4688 147.062 12.5469 146.906 12.6094C146.766 12.6562 146.602 12.6641 146.414 12.6328L145.008 12.0703C144.883 13.1016 144.797 14.1562 144.75 15.2344C144.703 16.2969 144.477 17.3125 144.07 18.2812C143.945 18.375 143.805 18.4453 143.648 18.4922C143.508 18.5391 143.352 18.5391 143.18 18.4922ZM135.117 15.4453C135.836 15.0547 136.516 14.6406 137.156 14.2031C137.812 13.75 138.336 13.1406 138.727 12.375L138.984 11.8359L138.82 11.7891C137.664 11.8516 136.539 12.0469 135.445 12.375C134.367 12.7031 133.344 13.2188 132.375 13.9219C132.281 14.0469 132.164 14.1797 132.023 14.3203C131.898 14.4453 131.852 14.6094 131.883 14.8125L132.234 15.4453C132.406 15.6484 132.602 15.7734 132.82 15.8203C133.055 15.8672 133.289 15.9062 133.523 15.9375C133.789 15.875 134.062 15.8125 134.344 15.75C134.625 15.6875 134.883 15.5859 135.117 15.4453ZM161.789 17.9531L161.25 17.7188C160.594 16.2344 160.008 14.7031 159.492 13.125C158.977 11.5312 158.43 9.96094 157.852 8.41406H157.711C157.102 8.67969 156.492 8.99219 155.883 9.35156C155.273 9.69531 154.664 9.96875 154.055 10.1719L153.516 9.91406C153.422 9.78906 153.352 9.64844 153.305 9.49219C153.258 9.33594 153.25 9.16406 153.281 8.97656L153.516 8.46094C154.031 8.02344 154.609 7.65625 155.25 7.35938C155.891 7.04688 156.531 6.73438 157.172 6.42188C156.953 5.84375 156.727 5.25781 156.492 4.66406C156.273 4.07031 156.133 3.46875 156.07 2.85938L156.328 2.32031C156.469 2.22656 156.609 2.15625 156.75 2.10938C156.906 2.0625 157.078 2.05469 157.266 2.08594L157.758 2.32031C158.039 2.83594 158.266 3.375 158.438 3.9375C158.625 4.5 158.82 5.05469 159.023 5.60156L159.188 5.64844C159.984 5.38281 160.797 5.14844 161.625 4.94531C162.453 4.72656 163.297 4.60156 164.156 4.57031C164.156 4.16406 164.227 3.76562 164.367 3.375C164.508 2.96875 164.719 2.60156 165 2.27344C165.141 2.17969 165.289 2.10156 165.445 2.03906C165.602 1.97656 165.766 1.97656 165.938 2.03906L166.453 2.27344C166.547 2.41406 166.617 2.5625 166.664 2.71875C166.727 2.875 166.742 3.0625 166.711 3.28125C166.57 3.51562 166.445 3.75781 166.336 4.00781C166.227 4.24219 166.172 4.5 166.172 4.78125C166.938 4.84375 167.688 5 168.422 5.25C169.156 5.48438 169.844 5.8125 170.484 6.23438C170.875 6.67188 171.203 7.14844 171.469 7.66406C171.75 8.16406 171.953 8.69531 172.078 9.25781V11.4609C171.922 12.4453 171.688 13.3984 171.375 14.3203C171.078 15.2266 170.734 16.1328 170.344 17.0391C170.25 17.1328 170.133 17.2031 169.992 17.25C169.852 17.2812 169.711 17.3125 169.57 17.3438C169.414 17.3125 169.281 17.2734 169.172 17.2266C169.062 17.1641 168.953 17.1016 168.844 17.0391C168.734 16.8984 168.648 16.75 168.586 16.5938C168.539 16.4375 168.531 16.2734 168.562 16.1016C168.953 15.0234 169.328 13.9531 169.688 12.8906C170.062 11.8125 170.172 10.6797 170.016 9.49219C169.953 9.19531 169.852 8.90625 169.711 8.625C169.586 8.34375 169.414 8.07031 169.195 7.80469C168.68 7.52344 168.148 7.29688 167.602 7.125C167.07 6.9375 166.516 6.8125 165.938 6.75C165.859 7.23438 165.812 7.71875 165.797 8.20312C165.781 8.6875 165.664 9.13281 165.445 9.53906C165.32 9.66406 165.18 9.75 165.023 9.79688C164.867 9.84375 164.703 9.85156 164.531 9.82031L164.016 9.53906C163.906 9.41406 163.828 9.26562 163.781 9.09375C163.734 8.90625 163.711 8.73438 163.711 8.57812L163.898 6.70312L163.852 6.65625C163.117 6.6875 162.406 6.79688 161.719 6.98438C161.031 7.17188 160.352 7.39844 159.68 7.66406C160.289 9.24219 160.867 10.8281 161.414 12.4219C161.961 14 162.484 15.5859 162.984 17.1797L162.703 17.7188C162.578 17.8125 162.43 17.8828 162.258 17.9297C162.102 17.9766 161.945 17.9844 161.789 17.9531ZM0.9375 52.5625L0.46875 52.3281C0.25 51.9844 0.15625 51.5938 0.1875 51.1562C0.21875 50.7188 0.203125 50.2969 0.140625 49.8906V46.375L0.09375 46.3281V44.0312L0.046875 43.9844V41.6875L0 41.6406C0.09375 40.7656 0.164062 39.875 0.210938 38.9688C0.257812 38.0625 0.34375 37.1719 0.46875 36.2969C0.375 36.2031 0.320312 36.0938 0.304688 35.9688C0.289062 35.8438 0.28125 35.7031 0.28125 35.5469L0.515625 35.0781L0.984375 34.8438H3.5625C4.875 35 6.19531 35.0781 7.52344 35.0781C8.85156 35.0781 10.125 35.3125 11.3438 35.7812C11.4688 35.9375 11.5391 36.1094 11.5547 36.2969C11.5703 36.4844 11.5781 36.6875 11.5781 36.9062L11.3906 38.6875V42.2969C11.5469 43.7031 11.6719 45.1094 11.7656 46.5156C11.8594 47.9219 12.0625 49.3125 12.375 50.6875L12.1406 51.1562L11.9062 51.25C11.9375 51.4375 11.9297 51.6016 11.8828 51.7422C11.8359 51.8828 11.7656 52.0156 11.6719 52.1406C11.5781 52.2344 11.4688 52.2969 11.3438 52.3281C11.2188 52.3594 11.0938 52.3906 10.9688 52.4219H8.53125L8.48438 52.375H1.6875C1.59375 52.4688 1.48438 52.5234 1.35938 52.5391C1.23438 52.5547 1.09375 52.5625 0.9375 52.5625ZM10.5469 50.5938V50.4062C10.3906 49.875 10.2656 49.3438 10.1719 48.8125C10.0781 48.2812 10.0156 47.7344 9.98438 47.1719L7.73438 46.9844H3.79688L1.96875 47.125V49.8906L2.01562 50.5469H8.48438L8.53125 50.5938H10.5469ZM9.84375 45.3906V45.1562L9.65625 42.9062C9.0625 42.7812 8.46094 42.7188 7.85156 42.7188C7.24219 42.7188 6.625 42.6875 6 42.625H2.25L1.875 42.6719V43.9844L1.92188 45.2969H2.4375L3.79688 45.1562H7.73438L9.84375 45.3906ZM9.5625 41.0312V38.6875L9.70312 37.0469L2.20312 36.6719L1.92188 40.8438H2.20312L2.25 40.7969H6C6.59375 40.8281 7.1875 40.8516 7.78125 40.8672C8.375 40.8828 8.96875 40.9375 9.5625 41.0312ZM24.5625 55L24.0938 54.7656C23.75 54.0156 23.5703 53.2266 23.5547 52.3984C23.5391 51.5703 23.5 50.75 23.4375 49.9375L23.6719 43.8438L23.625 43.7969C22.9688 44.4219 22.3516 45.0781 21.7734 45.7656C21.1953 46.4531 20.7812 47.2344 20.5312 48.1094C20.4062 48.2031 20.2734 48.2734 20.1328 48.3203C19.9922 48.3672 19.8438 48.375 19.6875 48.3438L19.2188 48.1094C19.125 47.9844 19.0547 47.8516 19.0078 47.7109C18.9609 47.5703 18.9531 47.4062 18.9844 47.2188C19.2969 46.1875 19.8203 45.2578 20.5547 44.4297C21.2891 43.6016 22.0469 42.7969 22.8281 42.0156L23.7188 41.4062V40.1875C23 40.125 22.2812 40.0312 21.5625 39.9062C20.8438 39.7812 20.1719 39.5312 19.5469 39.1562C19.4531 39.0312 19.3828 38.8984 19.3359 38.7578C19.2891 38.6172 19.2812 38.4688 19.3125 38.3125L19.5469 37.8438C19.6719 37.75 19.8047 37.6797 19.9453 37.6328C20.0859 37.5859 20.25 37.5781 20.4375 37.6094C20.9375 37.8594 21.4609 38.0391 22.0078 38.1484C22.5547 38.2578 23.125 38.3281 23.7188 38.3594V36.4844C23.75 36.2031 23.7734 35.9297 23.7891 35.6641C23.8047 35.3984 23.8906 35.1562 24.0469 34.9375C24.1719 34.8438 24.3047 34.7734 24.4453 34.7266C24.5859 34.6797 24.7344 34.6719 24.8906 34.7031L25.3594 34.9375C25.5156 35.125 25.5938 35.3594 25.5938 35.6406C25.5938 35.9219 25.5938 36.1875 25.5938 36.4375L25.5469 36.4844V38.5L26.6719 38.5469L27.3281 38.4531L27.7969 38.6875C27.8906 38.8125 27.9609 38.9453 28.0078 39.0859C28.0547 39.2266 28.0625 39.375 28.0312 39.5312L27.7969 40C27.5469 40.1875 27.2578 40.3047 26.9297 40.3516C26.6016 40.3984 26.2656 40.4062 25.9219 40.375L25.5469 40.3281V41.2656C26.0781 41.8594 26.6484 42.4375 27.2578 43C27.8672 43.5625 28.2812 44.2031 28.5 44.9219L28.2656 45.3906C28.1406 45.4844 28.0078 45.5547 27.8672 45.6016C27.7266 45.6484 27.5781 45.6562 27.4219 45.625L26.9531 45.3906L25.5469 43.8906C25.4844 44.8906 25.4375 45.8984 25.4062 46.9141C25.375 47.9297 25.3281 48.9375 25.2656 49.9375C25.3281 50.6562 25.3672 51.3828 25.3828 52.1172C25.3984 52.8516 25.4844 53.5781 25.6406 54.2969L25.4062 54.7656C25.2812 54.8594 25.1484 54.9297 25.0078 54.9766C24.8672 55.0234 24.7188 55.0312 24.5625 55ZM29.0625 54.25C28.9375 54.2188 28.8203 54.1797 28.7109 54.1328C28.6016 54.0859 28.5 54.0312 28.4062 53.9688C28.3438 53.875 28.2891 53.7734 28.2422 53.6641C28.1953 53.5547 28.1562 53.4375 28.125 53.3125C28.2188 52.5938 28.2969 51.875 28.3594 51.1562C28.4219 50.4375 28.5781 49.75 28.8281 49.0938C28.9531 49 29.0859 48.9297 29.2266 48.8828C29.3672 48.8359 29.5156 48.8281 29.6719 48.8594L30.1406 49.0938C30.2344 49.2188 30.3047 49.3516 30.3516 49.4922C30.3984 49.6328 30.4062 49.7812 30.375 49.9375C30.2812 50.4375 30.2031 50.9531 30.1406 51.4844C30.0781 52.0156 30.0312 52.5469 30 53.0781L30.0469 53.5L29.8125 53.9688C29.7188 54.0625 29.6016 54.125 29.4609 54.1562C29.3203 54.1875 29.1875 54.2188 29.0625 54.25ZM33.8906 54.1562C33.6406 54.0938 33.4219 53.9609 33.2344 53.7578C33.0469 53.5547 32.8594 53.375 32.6719 53.2188C32.5781 53.0938 32.5078 52.9609 32.4609 52.8203C32.4141 52.6797 32.4062 52.5312 32.4375 52.375L32.6719 51.9062L33.0469 51.7188V51.625C32.9531 51.0625 32.875 50.4844 32.8125 49.8906C32.75 49.2969 32.7344 48.6875 32.7656 48.0625H29.1562C28.9375 48 28.7109 47.9531 28.4766 47.9219C28.2422 47.8906 28.0312 47.7969 27.8438 47.6406C27.75 47.5156 27.6797 47.3828 27.6328 47.2422C27.5859 47.1016 27.5781 46.9531 27.6094 46.7969L27.8438 46.3281C28 46.2031 28.1875 46.1328 28.4062 46.1172C28.625 46.1016 28.8438 46.0938 29.0625 46.0938L29.3438 46.2344H32.8594C33.8594 46.3281 34.8594 46.3828 35.8594 46.3984C36.8594 46.4141 37.8438 46.5312 38.8125 46.75C38.9062 46.875 38.9766 47.0078 39.0234 47.1484C39.0703 47.2891 39.0781 47.4375 39.0469 47.5938L38.8125 48.0625C38.7188 48.1562 38.6016 48.2188 38.4609 48.25C38.3203 48.2812 38.1875 48.3125 38.0625 48.3438L34.5938 48.2031V49.7969C34.6875 50.3906 34.7734 50.9922 34.8516 51.6016C34.9297 52.2109 34.9844 52.8281 35.0156 53.4531L34.7812 53.9219C34.6562 54.0156 34.5234 54.0859 34.3828 54.1328C34.2422 54.1797 34.0781 54.1875 33.8906 54.1562ZM38.9062 54.0156L38.25 53.5938C37.8125 53.0938 37.4297 52.5625 37.1016 52C36.7734 51.4375 36.5938 50.8125 36.5625 50.125C36.5938 50 36.6328 49.8828 36.6797 49.7734C36.7266 49.6641 36.7812 49.5625 36.8438 49.4688C36.9688 49.375 37.1016 49.3047 37.2422 49.2578C37.3828 49.2109 37.5312 49.2031 37.6875 49.2344L38.1562 49.4688C38.25 50.1875 38.5156 50.8516 38.9531 51.4609C39.3906 52.0703 39.7344 52.6875 39.9844 53.3125L39.75 53.7812C39.625 53.875 39.4922 53.9453 39.3516 53.9922C39.2109 54.0391 39.0625 54.0469 38.9062 54.0156ZM36.2344 45.3906C35.2344 45.2656 34.2266 45.1953 33.2109 45.1797C32.1953 45.1641 31.2031 45.0469 30.2344 44.8281C30.1406 44.7031 30.0703 44.5703 30.0234 44.4297C29.9766 44.2891 29.9688 44.1406 30 43.9844L30.2344 43.5156C30.5469 43.3281 30.9062 43.25 31.3125 43.2812C31.7188 43.3125 32.125 43.3125 32.5312 43.2812C33.3125 43.3438 34.1016 43.3906 34.8984 43.4219C35.6953 43.4531 36.4531 43.5938 37.1719 43.8438C37.2656 43.9688 37.3359 44.1016 37.3828 44.2422C37.4297 44.3828 37.4375 44.5312 37.4062 44.6875L37.1719 45.1562C37.0469 45.25 36.9062 45.3203 36.75 45.3672C36.5938 45.4141 36.4219 45.4219 36.2344 45.3906ZM35.1562 42.9062L35.1094 42.8594H32.0156L31.9688 42.8125H29.8594C29.6719 42.7812 29.4922 42.75 29.3203 42.7188C29.1484 42.6875 28.9844 42.6094 28.8281 42.4844C28.7344 42.3594 28.6641 42.2266 28.6172 42.0859C28.5703 41.9453 28.5625 41.7969 28.5938 41.6406L28.6875 41.4062L28.4062 39.5781C28.4688 39.0469 28.5156 38.5 28.5469 37.9375C28.5781 37.375 28.7188 36.8594 28.9688 36.3906C29.0938 36.2969 29.2266 36.2266 29.3672 36.1797C29.5078 36.1328 29.6562 36.125 29.8125 36.1562L30.2812 36.3906L30.4219 36.5781H31.9219L31.9688 35.9688C31.4375 35.9688 30.9141 35.9453 30.3984 35.8984C29.8828 35.8516 29.3906 35.7344 28.9219 35.5469C28.8281 35.4219 28.7578 35.2891 28.7109 35.1484C28.6641 35.0078 28.6562 34.8594 28.6875 34.7031L28.9219 34.2344C29.0781 34.1094 29.25 34.0391 29.4375 34.0234C29.625 34.0078 29.8281 34 30.0469 34C31.4531 34.1562 32.875 34.2344 34.3125 34.2344C35.75 34.2344 37.1562 34.3906 38.5312 34.7031C38.625 34.8281 38.6953 34.9609 38.7422 35.1016C38.7891 35.2422 38.7969 35.3906 38.7656 35.5469L38.5312 36.0156C38.4375 36.1094 38.3203 36.1719 38.1797 36.2031C38.0391 36.2344 37.9062 36.2656 37.7812 36.2969C37.5312 36.2031 37.2578 36.1562 36.9609 36.1562C36.6641 36.1562 36.375 36.1562 36.0938 36.1562V36.5312L36.8438 36.5781H39.0938L39.5625 36.8125C39.6562 36.9375 39.7266 37.0703 39.7734 37.2109C39.8203 37.3516 39.8281 37.5 39.7969 37.6562C39.5469 38.2188 39.4375 38.8281 39.4688 39.4844C39.5 40.1406 39.4375 40.7656 39.2812 41.3594C39.375 41.4531 39.4297 41.5625 39.4453 41.6875C39.4609 41.8125 39.4688 41.9531 39.4688 42.1094L39.2344 42.5781C39.0781 42.7031 38.8984 42.7812 38.6953 42.8125C38.4922 42.8438 38.2812 42.875 38.0625 42.9062H35.1562ZM37.5 41.0781V40.9844C37.5938 40.5781 37.6406 40.1562 37.6406 39.7188C37.6406 39.2812 37.6562 38.8438 37.6875 38.4062L35.8594 38.3594L35.8125 38.6406V40.8906L35.7656 40.9375L35.8125 41.0781H37.5ZM33.9844 40.9844L33.9375 40.9375L33.9844 40.8906V38.6406L34.0312 38.3594H33.75L33.4688 38.4062L33.375 40.4219L33.4688 41.0312H33.9375L33.9844 40.9844ZM31.6406 40.9844V40.8438L31.5 40.375L31.6406 38.4062H30.3281L30.2344 39.5781L30.4219 40.9844H31.6406ZM34.2656 36.5312V36.0625H33.8906L33.75 36.5312H34.2656Z" fill="#E92483"/>
</svg>
